<svg width="48" height="58" viewBox="0 0 48 58" fill="none" xmlns="http://www.w3.org/2000/svg">
<path fill-rule="evenodd" clip-rule="evenodd" d="M0 10.7894C0 4.82934 4.77276 0 10.663 0H37.337C43.2272 0 48 4.82934 48 10.7894V32.8767C48 36.0167 46.6543 38.829 44.5581 40.7969L30.0674 55.4593C26.7195 58.8469 21.2805 58.8469 17.9326 55.4593L3.4433 40.7983C1.32652 38.8268 0 36.0125 0 32.8767V10.7894Z" fill="black"/>
<path fill-rule="evenodd" clip-rule="evenodd" d="M0 10.7894C0 4.82934 4.77276 0 10.663 0H37.337C43.2272 0 48 4.82934 48 10.7894V32.8767C48 36.0167 46.6543 38.829 44.5581 40.7969L30.0674 55.4593C26.7195 58.8469 21.2805 58.8469 17.9326 55.4593L3.4433 40.7983C1.32652 38.8268 0 36.0125 0 32.8767V10.7894Z" fill="black" fill-opacity="0.2"/>
<path fill-rule="evenodd" clip-rule="evenodd" d="M0 10.7894C0 4.82934 4.77276 0 10.663 0H37.337C43.2272 0 48 4.82934 48 10.7894V32.8767C48 36.0167 46.6543 38.829 44.5581 40.7969L30.0674 55.4593C26.7195 58.8469 21.2805 58.8469 17.9326 55.4593L3.4433 40.7983C1.32652 38.8268 0 36.0125 0 32.8767V10.7894Z" fill="black" fill-opacity="0.2"/>
<path fill-rule="evenodd" clip-rule="evenodd" d="M0 10.7894C0 4.82934 4.77276 0 10.663 0H37.337C43.2272 0 48 4.82934 48 10.7894V32.8767C48 36.0167 46.6543 38.829 44.5581 40.7969L30.0674 55.4593C26.7195 58.8469 21.2805 58.8469 17.9326 55.4593L3.4433 40.7983C1.32652 38.8268 0 36.0125 0 32.8767V10.7894Z" fill="black" fill-opacity="0.2"/>
<path fill-rule="evenodd" clip-rule="evenodd" d="M0 10.7894C0 4.82934 4.77276 0 10.663 0H37.337C43.2272 0 48 4.82934 48 10.7894V32.8767C48 36.0167 46.6543 38.829 44.5581 40.7969L30.0674 55.4593C26.7195 58.8469 21.2805 58.8469 17.9326 55.4593L3.4433 40.7983C1.32652 38.8268 0 36.0125 0 32.8767V10.7894Z" fill="black" fill-opacity="0.2"/>
<path fill-rule="evenodd" clip-rule="evenodd" d="M0 10.7894C0 4.82934 4.77276 0 10.663 0H37.337C43.2272 0 48 4.82934 48 10.7894V32.8767C48 36.0167 46.6543 38.829 44.5581 40.7969L30.0674 55.4593C26.7195 58.8469 21.2805 58.8469 17.9326 55.4593L3.4433 40.7983C1.32652 38.8268 0 36.0125 0 32.8767V10.7894Z" fill="black" fill-opacity="0.2"/>
<path fill-rule="evenodd" clip-rule="evenodd" d="M0 10.7894C0 4.82934 4.77276 0 10.663 0H37.337C43.2272 0 48 4.82934 48 10.7894V32.8767C48 36.0167 46.6543 38.829 44.5581 40.7969L30.0674 55.4593C26.7195 58.8469 21.2805 58.8469 17.9326 55.4593L3.4433 40.7983C1.32652 38.8268 0 36.0125 0 32.8767V10.7894Z" fill="black" fill-opacity="0.2"/>
<path fill-rule="evenodd" clip-rule="evenodd" d="M0 10.7894C0 4.82934 4.77276 0 10.663 0H37.337C43.2272 0 48 4.82934 48 10.7894V32.8767C48 36.0167 46.6543 38.829 44.5581 40.7969L30.0674 55.4593C26.7195 58.8469 21.2805 58.8469 17.9326 55.4593L3.4433 40.7983C1.32652 38.8268 0 36.0125 0 32.8767V10.7894Z" fill="black" fill-opacity="0.2"/>
<g clip-path="url(#clip0_3025_22946)">
<path d="M17 34C18.6569 34 20 32.6569 20 31C20 29.3431 18.6569 28 17 28C15.3431 28 14 29.3431 14 31C14 32.6569 15.3431 34 17 34Z" stroke="white" stroke-width="2" stroke-linecap="round" stroke-linejoin="round"/>
<path d="M17 18C18.6569 18 20 16.6569 20 15C20 13.3431 18.6569 12 17 12C15.3431 12 14 13.3431 14 15C14 16.6569 15.3431 18 17 18Z" stroke="white" stroke-width="2" stroke-linecap="round" stroke-linejoin="round"/>
<path d="M17 18V28" stroke="white" stroke-width="2" stroke-linecap="round" stroke-linejoin="round"/>
<path d="M33 34C34.6569 34 36 32.6569 36 31C36 29.3431 34.6569 28 33 28C31.3431 28 30 29.3431 30 31C30 32.6569 31.3431 34 33 34Z" stroke="white" stroke-width="2" stroke-linecap="round" stroke-linejoin="round"/>
<path d="M33 28V20.8287C33 20.5659 32.9483 20.3057 32.8477 20.0629C32.7471 19.8201 32.5996 19.5995 32.4137 19.4137L26 13" stroke="white" stroke-width="2" stroke-linecap="round" stroke-linejoin="round"/>
<path d="M26 19V13H32" stroke="white" stroke-width="2" stroke-linecap="round" stroke-linejoin="round"/>
</g>
<defs>
<clipPath id="clip0_3025_22946">
<rect width="32" height="32" fill="white" transform="translate(8 7)"/>
</clipPath>
</defs>
</svg>
