<svg width="50" height="50" viewBox="0 0 50 50" fill="none" xmlns="http://www.w3.org/2000/svg">
<circle cx="25" cy="25" r="25" fill="#FFF5E0"/>
<path d="M25 28C32.1797 28 38 25.3137 38 22C38 18.6863 32.1797 16 25 16C17.8203 16 12 18.6863 12 22C12 25.3137 17.8203 28 25 28Z" stroke="black" stroke-width="2" stroke-linecap="round" stroke-linejoin="round"/>
<path d="M25 28C32.1797 28 38 25.3137 38 22C38 18.6863 32.1797 16 25 16C17.8203 16 12 18.6863 12 22C12 25.3137 17.8203 28 25 28Z" stroke="black" stroke-opacity="0.2" stroke-width="2" stroke-linecap="round" stroke-linejoin="round"/>
<path d="M25 28C32.1797 28 38 25.3137 38 22C38 18.6863 32.1797 16 25 16C17.8203 16 12 18.6863 12 22C12 25.3137 17.8203 28 25 28Z" stroke="black" stroke-opacity="0.2" stroke-width="2" stroke-linecap="round" stroke-linejoin="round"/>
<path d="M25 28C32.1797 28 38 25.3137 38 22C38 18.6863 32.1797 16 25 16C17.8203 16 12 18.6863 12 22C12 25.3137 17.8203 28 25 28Z" stroke="black" stroke-opacity="0.2" stroke-width="2" stroke-linecap="round" stroke-linejoin="round"/>
<path d="M25 28C32.1797 28 38 25.3137 38 22C38 18.6863 32.1797 16 25 16C17.8203 16 12 18.6863 12 22C12 25.3137 17.8203 28 25 28Z" stroke="black" stroke-opacity="0.2" stroke-width="2" stroke-linecap="round" stroke-linejoin="round"/>
<path d="M25 28C32.1797 28 38 25.3137 38 22C38 18.6863 32.1797 16 25 16C17.8203 16 12 18.6863 12 22C12 25.3137 17.8203 28 25 28Z" stroke="black" stroke-opacity="0.2" stroke-width="2" stroke-linecap="round" stroke-linejoin="round"/>
<path d="M25 28C32.1797 28 38 25.3137 38 22C38 18.6863 32.1797 16 25 16C17.8203 16 12 18.6863 12 22C12 25.3137 17.8203 28 25 28Z" stroke="black" stroke-opacity="0.2" stroke-width="2" stroke-linecap="round" stroke-linejoin="round"/>
<path d="M25 28C32.1797 28 38 25.3137 38 22C38 18.6863 32.1797 16 25 16C17.8203 16 12 18.6863 12 22C12 25.3137 17.8203 28 25 28Z" stroke="black" stroke-opacity="0.2" stroke-width="2" stroke-linecap="round" stroke-linejoin="round"/>
<path d="M25 28V34" stroke="black" stroke-width="2" stroke-linecap="round" stroke-linejoin="round"/>
<path d="M25 28V34" stroke="black" stroke-opacity="0.2" stroke-width="2" stroke-linecap="round" stroke-linejoin="round"/>
<path d="M25 28V34" stroke="black" stroke-opacity="0.2" stroke-width="2" stroke-linecap="round" stroke-linejoin="round"/>
<path d="M25 28V34" stroke="black" stroke-opacity="0.2" stroke-width="2" stroke-linecap="round" stroke-linejoin="round"/>
<path d="M25 28V34" stroke="black" stroke-opacity="0.2" stroke-width="2" stroke-linecap="round" stroke-linejoin="round"/>
<path d="M25 28V34" stroke="black" stroke-opacity="0.2" stroke-width="2" stroke-linecap="round" stroke-linejoin="round"/>
<path d="M25 28V34" stroke="black" stroke-opacity="0.2" stroke-width="2" stroke-linecap="round" stroke-linejoin="round"/>
<path d="M25 28V34" stroke="black" stroke-opacity="0.2" stroke-width="2" stroke-linecap="round" stroke-linejoin="round"/>
<path d="M12 22V28C12 31 17 34 25 34C33 34 38 31 38 28V22" stroke="black" stroke-width="2" stroke-linecap="round" stroke-linejoin="round"/>
<path d="M12 22V28C12 31 17 34 25 34C33 34 38 31 38 28V22" stroke="black" stroke-opacity="0.2" stroke-width="2" stroke-linecap="round" stroke-linejoin="round"/>
<path d="M12 22V28C12 31 17 34 25 34C33 34 38 31 38 28V22" stroke="black" stroke-opacity="0.2" stroke-width="2" stroke-linecap="round" stroke-linejoin="round"/>
<path d="M12 22V28C12 31 17 34 25 34C33 34 38 31 38 28V22" stroke="black" stroke-opacity="0.2" stroke-width="2" stroke-linecap="round" stroke-linejoin="round"/>
<path d="M12 22V28C12 31 17 34 25 34C33 34 38 31 38 28V22" stroke="black" stroke-opacity="0.2" stroke-width="2" stroke-linecap="round" stroke-linejoin="round"/>
<path d="M12 22V28C12 31 17 34 25 34C33 34 38 31 38 28V22" stroke="black" stroke-opacity="0.2" stroke-width="2" stroke-linecap="round" stroke-linejoin="round"/>
<path d="M12 22V28C12 31 17 34 25 34C33 34 38 31 38 28V22" stroke="black" stroke-opacity="0.2" stroke-width="2" stroke-linecap="round" stroke-linejoin="round"/>
<path d="M12 22V28C12 31 17 34 25 34C33 34 38 31 38 28V22" stroke="black" stroke-opacity="0.2" stroke-width="2" stroke-linecap="round" stroke-linejoin="round"/>
<path d="M33 26.7656V32.7656" stroke="black" stroke-width="2" stroke-linecap="round" stroke-linejoin="round"/>
<path d="M33 26.7656V32.7656" stroke="black" stroke-opacity="0.2" stroke-width="2" stroke-linecap="round" stroke-linejoin="round"/>
<path d="M33 26.7656V32.7656" stroke="black" stroke-opacity="0.2" stroke-width="2" stroke-linecap="round" stroke-linejoin="round"/>
<path d="M33 26.7656V32.7656" stroke="black" stroke-opacity="0.2" stroke-width="2" stroke-linecap="round" stroke-linejoin="round"/>
<path d="M33 26.7656V32.7656" stroke="black" stroke-opacity="0.2" stroke-width="2" stroke-linecap="round" stroke-linejoin="round"/>
<path d="M33 26.7656V32.7656" stroke="black" stroke-opacity="0.2" stroke-width="2" stroke-linecap="round" stroke-linejoin="round"/>
<path d="M33 26.7656V32.7656" stroke="black" stroke-opacity="0.2" stroke-width="2" stroke-linecap="round" stroke-linejoin="round"/>
<path d="M33 26.7656V32.7656" stroke="black" stroke-opacity="0.2" stroke-width="2" stroke-linecap="round" stroke-linejoin="round"/>
<path d="M16 27V32" stroke="black" stroke-width="2" stroke-linecap="round" stroke-linejoin="round"/>
</svg>
