<svg width="62" height="62" viewBox="0 0 62 62" fill="none" xmlns="http://www.w3.org/2000/svg">
<circle cx="31" cy="31" r="30.5" stroke="black"/>
<path d="M31 45L44.9932 31.0163C45.0023 31.0072 45.0023 30.9924 44.9932 30.9832L31 17" stroke="black" stroke-width="2.5"/>
<path d="M31 45L44.9932 31.0163C45.0023 31.0072 45.0023 30.9924 44.9932 30.9832L31 17" stroke="black" stroke-opacity="0.2" stroke-width="2.5"/>
<path d="M31 45L44.9932 31.0163C45.0023 31.0072 45.0023 30.9924 44.9932 30.9832L31 17" stroke="black" stroke-opacity="0.2" stroke-width="2.5"/>
<path d="M31 45L44.9932 31.0163C45.0023 31.0072 45.0023 30.9924 44.9932 30.9832L31 17" stroke="black" stroke-opacity="0.2" stroke-width="2.5"/>
<path d="M31 45L44.9932 31.0163C45.0023 31.0072 45.0023 30.9924 44.9932 30.9832L31 17" stroke="black" stroke-opacity="0.2" stroke-width="2.5"/>
<path d="M31 45L44.9932 31.0163C45.0023 31.0072 45.0023 30.9924 44.9932 30.9832L31 17" stroke="black" stroke-opacity="0.2" stroke-width="2.5"/>
<path d="M31 45L44.9932 31.0163C45.0023 31.0072 45.0023 30.9924 44.9932 30.9832L31 17" stroke="black" stroke-opacity="0.2" stroke-width="2.5"/>
<path d="M31 45L44.9932 31.0163C45.0023 31.0072 45.0023 30.9924 44.9932 30.9832L31 17" stroke="black" stroke-opacity="0.2" stroke-width="2.5"/>
<path d="M43.4462 31L13.8906 31" stroke="black" stroke-width="2.5" stroke-linecap="square"/>
</svg>
