<svg width="49" height="58" viewBox="0 0 49 58" fill="none" xmlns="http://www.w3.org/2000/svg">
<path fill-rule="evenodd" clip-rule="evenodd" d="M0.5 11.5096C0.5 5.65232 5.27276 0.90625 11.163 0.90625H37.837C43.7272 0.90625 48.5 5.65232 48.5 11.5096V33.2161C48.5 36.302 47.1543 39.0658 45.0581 40.9997L30.5674 55.4093C27.2195 58.7386 21.7805 58.7386 18.4326 55.4093L3.9433 41.0011C1.82652 39.0637 0.5 36.2979 0.5 33.2161V11.5096Z" fill="black"/>
<path fill-rule="evenodd" clip-rule="evenodd" d="M0.5 11.5096C0.5 5.65232 5.27276 0.90625 11.163 0.90625H37.837C43.7272 0.90625 48.5 5.65232 48.5 11.5096V33.2161C48.5 36.302 47.1543 39.0658 45.0581 40.9997L30.5674 55.4093C27.2195 58.7386 21.7805 58.7386 18.4326 55.4093L3.9433 41.0011C1.82652 39.0637 0.5 36.2979 0.5 33.2161V11.5096Z" fill="black" fill-opacity="0.2"/>
<path fill-rule="evenodd" clip-rule="evenodd" d="M0.5 11.5096C0.5 5.65232 5.27276 0.90625 11.163 0.90625H37.837C43.7272 0.90625 48.5 5.65232 48.5 11.5096V33.2161C48.5 36.302 47.1543 39.0658 45.0581 40.9997L30.5674 55.4093C27.2195 58.7386 21.7805 58.7386 18.4326 55.4093L3.9433 41.0011C1.82652 39.0637 0.5 36.2979 0.5 33.2161V11.5096Z" fill="black" fill-opacity="0.2"/>
<path fill-rule="evenodd" clip-rule="evenodd" d="M0.5 11.5096C0.5 5.65232 5.27276 0.90625 11.163 0.90625H37.837C43.7272 0.90625 48.5 5.65232 48.5 11.5096V33.2161C48.5 36.302 47.1543 39.0658 45.0581 40.9997L30.5674 55.4093C27.2195 58.7386 21.7805 58.7386 18.4326 55.4093L3.9433 41.0011C1.82652 39.0637 0.5 36.2979 0.5 33.2161V11.5096Z" fill="black" fill-opacity="0.2"/>
<path fill-rule="evenodd" clip-rule="evenodd" d="M0.5 11.5096C0.5 5.65232 5.27276 0.90625 11.163 0.90625H37.837C43.7272 0.90625 48.5 5.65232 48.5 11.5096V33.2161C48.5 36.302 47.1543 39.0658 45.0581 40.9997L30.5674 55.4093C27.2195 58.7386 21.7805 58.7386 18.4326 55.4093L3.9433 41.0011C1.82652 39.0637 0.5 36.2979 0.5 33.2161V11.5096Z" fill="black" fill-opacity="0.2"/>
<path fill-rule="evenodd" clip-rule="evenodd" d="M0.5 11.5096C0.5 5.65232 5.27276 0.90625 11.163 0.90625H37.837C43.7272 0.90625 48.5 5.65232 48.5 11.5096V33.2161C48.5 36.302 47.1543 39.0658 45.0581 40.9997L30.5674 55.4093C27.2195 58.7386 21.7805 58.7386 18.4326 55.4093L3.9433 41.0011C1.82652 39.0637 0.5 36.2979 0.5 33.2161V11.5096Z" fill="black" fill-opacity="0.2"/>
<path fill-rule="evenodd" clip-rule="evenodd" d="M0.5 11.5096C0.5 5.65232 5.27276 0.90625 11.163 0.90625H37.837C43.7272 0.90625 48.5 5.65232 48.5 11.5096V33.2161C48.5 36.302 47.1543 39.0658 45.0581 40.9997L30.5674 55.4093C27.2195 58.7386 21.7805 58.7386 18.4326 55.4093L3.9433 41.0011C1.82652 39.0637 0.5 36.2979 0.5 33.2161V11.5096Z" fill="black" fill-opacity="0.2"/>
<path fill-rule="evenodd" clip-rule="evenodd" d="M0.5 11.5096C0.5 5.65232 5.27276 0.90625 11.163 0.90625H37.837C43.7272 0.90625 48.5 5.65232 48.5 11.5096V33.2161C48.5 36.302 47.1543 39.0658 45.0581 40.9997L30.5674 55.4093C27.2195 58.7386 21.7805 58.7386 18.4326 55.4093L3.9433 41.0011C1.82652 39.0637 0.5 36.2979 0.5 33.2161V11.5096Z" fill="black" fill-opacity="0.2"/>
<path d="M36.2992 25.6579C36.8199 22.8959 36.3203 20.0419 34.8904 17.6097C33.4604 15.1775 31.1941 13.3268 28.4992 12.3906V21.2355L36.2992 25.6579Z" fill="white" stroke="white" stroke-width="2" stroke-linecap="round" stroke-linejoin="round"/>
<path d="M24.4963 23.5634V11.7188C22.3938 11.7191 20.3284 12.2622 18.5067 13.2938C16.6851 14.3254 15.1712 15.8093 14.1167 17.5968C13.0621 19.3843 12.504 21.4127 12.4981 23.4788C12.4922 25.545 13.0388 27.5765 14.0831 29.3697C15.1274 31.163 16.6329 32.6551 18.4486 33.6968C20.2643 34.7384 22.3267 35.2929 24.4291 35.3048C26.5315 35.3166 28.6001 34.7855 30.4279 33.7644C32.2557 32.7434 33.7785 31.2684 34.8438 29.487L24.4963 23.5634Z" stroke="white" stroke-width="2" stroke-linecap="round" stroke-linejoin="round"/>
</svg>
