<svg width="50" height="51" viewBox="0 0 50 51" fill="none" xmlns="http://www.w3.org/2000/svg">
<rect y="0.0546875" width="50" height="50" rx="25" fill="#FFF5E0"/>
<path d="M23.5 32.5547H16.75C16.5511 32.5547 16.3603 32.4757 16.2197 32.335C16.079 32.1944 16 32.0036 16 31.8047V19.0547C16 18.8558 16.079 18.665 16.2197 18.5244C16.3603 18.3837 16.5511 18.3047 16.75 18.3047H21.7497C21.912 18.3047 22.0699 18.3573 22.1997 18.4547L24.8003 20.4047C24.9301 20.5021 25.088 20.5547 25.2503 20.5547H33.25C33.4489 20.5547 33.6397 20.6337 33.7803 20.7744C33.921 20.915 34 21.1058 34 21.3047V22.8047" stroke="black" stroke-width="2" stroke-linecap="round" stroke-linejoin="round"/>
<path d="M34 28.8047H27.25V32.5547H34V28.8047Z" stroke="black" stroke-width="2" stroke-linecap="round" stroke-linejoin="round"/>
<path d="M28.75 28.8047V27.6797C28.75 27.1824 28.9475 26.7055 29.2992 26.3539C29.6508 26.0022 30.1277 25.8047 30.625 25.8047C31.1223 25.8047 31.5992 26.0022 31.9508 26.3539C32.3025 26.7055 32.5 27.1824 32.5 27.6797V28.8047" stroke="black" stroke-width="2" stroke-linecap="round" stroke-linejoin="round"/>
</svg>
