<svg width="48" height="58" viewBox="0 0 48 58" fill="none" xmlns="http://www.w3.org/2000/svg">
<path fill-rule="evenodd" clip-rule="evenodd" d="M0 10.7894C0 4.82934 4.77276 0 10.663 0H37.337C43.2272 0 48 4.82934 48 10.7894V32.8767C48 36.0167 46.6543 38.829 44.5581 40.7969L30.0674 55.4593C26.7195 58.8469 21.2805 58.8469 17.9326 55.4593L3.4433 40.7983C1.32652 38.8268 0 36.0125 0 32.8767V10.7894Z" fill="black"/>
<path fill-rule="evenodd" clip-rule="evenodd" d="M0 10.7894C0 4.82934 4.77276 0 10.663 0H37.337C43.2272 0 48 4.82934 48 10.7894V32.8767C48 36.0167 46.6543 38.829 44.5581 40.7969L30.0674 55.4593C26.7195 58.8469 21.2805 58.8469 17.9326 55.4593L3.4433 40.7983C1.32652 38.8268 0 36.0125 0 32.8767V10.7894Z" fill="black" fill-opacity="0.2"/>
<path fill-rule="evenodd" clip-rule="evenodd" d="M0 10.7894C0 4.82934 4.77276 0 10.663 0H37.337C43.2272 0 48 4.82934 48 10.7894V32.8767C48 36.0167 46.6543 38.829 44.5581 40.7969L30.0674 55.4593C26.7195 58.8469 21.2805 58.8469 17.9326 55.4593L3.4433 40.7983C1.32652 38.8268 0 36.0125 0 32.8767V10.7894Z" fill="black" fill-opacity="0.2"/>
<path fill-rule="evenodd" clip-rule="evenodd" d="M0 10.7894C0 4.82934 4.77276 0 10.663 0H37.337C43.2272 0 48 4.82934 48 10.7894V32.8767C48 36.0167 46.6543 38.829 44.5581 40.7969L30.0674 55.4593C26.7195 58.8469 21.2805 58.8469 17.9326 55.4593L3.4433 40.7983C1.32652 38.8268 0 36.0125 0 32.8767V10.7894Z" fill="black" fill-opacity="0.2"/>
<path fill-rule="evenodd" clip-rule="evenodd" d="M0 10.7894C0 4.82934 4.77276 0 10.663 0H37.337C43.2272 0 48 4.82934 48 10.7894V32.8767C48 36.0167 46.6543 38.829 44.5581 40.7969L30.0674 55.4593C26.7195 58.8469 21.2805 58.8469 17.9326 55.4593L3.4433 40.7983C1.32652 38.8268 0 36.0125 0 32.8767V10.7894Z" fill="black" fill-opacity="0.2"/>
<path fill-rule="evenodd" clip-rule="evenodd" d="M0 10.7894C0 4.82934 4.77276 0 10.663 0H37.337C43.2272 0 48 4.82934 48 10.7894V32.8767C48 36.0167 46.6543 38.829 44.5581 40.7969L30.0674 55.4593C26.7195 58.8469 21.2805 58.8469 17.9326 55.4593L3.4433 40.7983C1.32652 38.8268 0 36.0125 0 32.8767V10.7894Z" fill="black" fill-opacity="0.2"/>
<path fill-rule="evenodd" clip-rule="evenodd" d="M0 10.7894C0 4.82934 4.77276 0 10.663 0H37.337C43.2272 0 48 4.82934 48 10.7894V32.8767C48 36.0167 46.6543 38.829 44.5581 40.7969L30.0674 55.4593C26.7195 58.8469 21.2805 58.8469 17.9326 55.4593L3.4433 40.7983C1.32652 38.8268 0 36.0125 0 32.8767V10.7894Z" fill="black" fill-opacity="0.2"/>
<path fill-rule="evenodd" clip-rule="evenodd" d="M0 10.7894C0 4.82934 4.77276 0 10.663 0H37.337C43.2272 0 48 4.82934 48 10.7894V32.8767C48 36.0167 46.6543 38.829 44.5581 40.7969L30.0674 55.4593C26.7195 58.8469 21.2805 58.8469 17.9326 55.4593L3.4433 40.7983C1.32652 38.8268 0 36.0125 0 32.8767V10.7894Z" fill="black" fill-opacity="0.2"/>
<g clip-path="url(#clip0_3023_22934)">
<path d="M34 26H14C13.4477 26 13 26.4477 13 27V33C13 33.5523 13.4477 34 14 34H34C34.5523 34 35 33.5523 35 33V27C35 26.4477 34.5523 26 34 26Z" stroke="white" stroke-width="2"/>
<path d="M34 14H14C13.4477 14 13 14.4477 13 15V21C13 21.5523 13.4477 22 14 22H34C34.5523 22 35 21.5523 35 21V15C35 14.4477 34.5523 14 34 14Z" stroke="white" stroke-width="2"/>
<path d="M30.5 19.5C31.3284 19.5 32 18.8284 32 18C32 17.1716 31.3284 16.5 30.5 16.5C29.6716 16.5 29 17.1716 29 18C29 18.8284 29.6716 19.5 30.5 19.5Z" fill="white"/>
<path d="M30.5 31.5C31.3284 31.5 32 30.8284 32 30C32 29.1716 31.3284 28.5 30.5 28.5C29.6716 28.5 29 29.1716 29 30C29 30.8284 29.6716 31.5 30.5 31.5Z" fill="white"/>
</g>
<defs>
<clipPath id="clip0_3023_22934">
<rect width="32" height="32" fill="white" transform="translate(8 8)"/>
</clipPath>
</defs>
</svg>
