<svg width="48" height="59" viewBox="0 0 48 59" fill="none" xmlns="http://www.w3.org/2000/svg">
<path fill-rule="evenodd" clip-rule="evenodd" d="M0 11.6957C0 5.73559 4.77276 0.90625 10.663 0.90625H37.337C43.2272 0.90625 48 5.73559 48 11.6957V33.7829C48 36.923 46.6543 39.7353 44.5581 41.7031L30.0674 56.3655C26.7195 59.7532 21.2805 59.7532 17.9326 56.3655L3.4433 41.7045C1.32652 39.7331 0 36.9188 0 33.7829V11.6957Z" fill="black"/>
<path fill-rule="evenodd" clip-rule="evenodd" d="M0 11.6957C0 5.73559 4.77276 0.90625 10.663 0.90625H37.337C43.2272 0.90625 48 5.73559 48 11.6957V33.7829C48 36.923 46.6543 39.7353 44.5581 41.7031L30.0674 56.3655C26.7195 59.7532 21.2805 59.7532 17.9326 56.3655L3.4433 41.7045C1.32652 39.7331 0 36.9188 0 33.7829V11.6957Z" fill="black" fill-opacity="0.2"/>
<path fill-rule="evenodd" clip-rule="evenodd" d="M0 11.6957C0 5.73559 4.77276 0.90625 10.663 0.90625H37.337C43.2272 0.90625 48 5.73559 48 11.6957V33.7829C48 36.923 46.6543 39.7353 44.5581 41.7031L30.0674 56.3655C26.7195 59.7532 21.2805 59.7532 17.9326 56.3655L3.4433 41.7045C1.32652 39.7331 0 36.9188 0 33.7829V11.6957Z" fill="black" fill-opacity="0.2"/>
<path fill-rule="evenodd" clip-rule="evenodd" d="M0 11.6957C0 5.73559 4.77276 0.90625 10.663 0.90625H37.337C43.2272 0.90625 48 5.73559 48 11.6957V33.7829C48 36.923 46.6543 39.7353 44.5581 41.7031L30.0674 56.3655C26.7195 59.7532 21.2805 59.7532 17.9326 56.3655L3.4433 41.7045C1.32652 39.7331 0 36.9188 0 33.7829V11.6957Z" fill="black" fill-opacity="0.2"/>
<path fill-rule="evenodd" clip-rule="evenodd" d="M0 11.6957C0 5.73559 4.77276 0.90625 10.663 0.90625H37.337C43.2272 0.90625 48 5.73559 48 11.6957V33.7829C48 36.923 46.6543 39.7353 44.5581 41.7031L30.0674 56.3655C26.7195 59.7532 21.2805 59.7532 17.9326 56.3655L3.4433 41.7045C1.32652 39.7331 0 36.9188 0 33.7829V11.6957Z" fill="black" fill-opacity="0.2"/>
<path fill-rule="evenodd" clip-rule="evenodd" d="M0 11.6957C0 5.73559 4.77276 0.90625 10.663 0.90625H37.337C43.2272 0.90625 48 5.73559 48 11.6957V33.7829C48 36.923 46.6543 39.7353 44.5581 41.7031L30.0674 56.3655C26.7195 59.7532 21.2805 59.7532 17.9326 56.3655L3.4433 41.7045C1.32652 39.7331 0 36.9188 0 33.7829V11.6957Z" fill="black" fill-opacity="0.2"/>
<path fill-rule="evenodd" clip-rule="evenodd" d="M0 11.6957C0 5.73559 4.77276 0.90625 10.663 0.90625H37.337C43.2272 0.90625 48 5.73559 48 11.6957V33.7829C48 36.923 46.6543 39.7353 44.5581 41.7031L30.0674 56.3655C26.7195 59.7532 21.2805 59.7532 17.9326 56.3655L3.4433 41.7045C1.32652 39.7331 0 36.9188 0 33.7829V11.6957Z" fill="black" fill-opacity="0.2"/>
<path fill-rule="evenodd" clip-rule="evenodd" d="M0 11.6957C0 5.73559 4.77276 0.90625 10.663 0.90625H37.337C43.2272 0.90625 48 5.73559 48 11.6957V33.7829C48 36.923 46.6543 39.7353 44.5581 41.7031L30.0674 56.3655C26.7195 59.7532 21.2805 59.7532 17.9326 56.3655L3.4433 41.7045C1.32652 39.7331 0 36.9188 0 33.7829V11.6957Z" fill="black" fill-opacity="0.2"/>
<path d="M26.8606 25.5562C23.7106 25.5562 21.1406 22.9963 21.1406 19.8363V18.6263C21.1406 15.4763 23.7006 12.9062 26.8606 12.9062C30.0206 12.9062 32.5806 15.4663 32.5806 18.6263V19.8363C32.5806 22.9863 30.0206 25.5562 26.8606 25.5562Z" stroke="white" stroke-width="2.2" stroke-linecap="square" stroke-linejoin="round"/>
<path d="M18.8578 24.7975C17.1478 23.8075 16.0078 21.9575 16.0078 19.8475V18.6375C16.0078 16.5275 17.1578 14.6775 18.8678 13.6875" stroke="white" stroke-width="2.2" stroke-linecap="square" stroke-linejoin="round"/>
<path d="M17.4297 34.8988C17.4297 31.3488 20.3097 28.4688 23.8597 28.4688H29.8797C33.4297 28.4688 36.3097 31.3488 36.3097 34.8988" stroke="white" stroke-width="2.2" stroke-linecap="square" stroke-linejoin="round"/>
<path d="M11 34.8988C11 31.3488 13.88 28.4688 17.43 28.4688" stroke="white" stroke-width="2.2" stroke-linecap="square" stroke-linejoin="round"/>
</svg>
