<svg width="48" height="58" viewBox="0 0 48 58" fill="none" xmlns="http://www.w3.org/2000/svg">
<path fill-rule="evenodd" clip-rule="evenodd" d="M0 10.7894C0 4.82934 4.77276 0 10.663 0H37.337C43.2272 0 48 4.82934 48 10.7894V32.8767C48 36.0167 46.6543 38.829 44.5581 40.7969L30.0674 55.4593C26.7195 58.8469 21.2805 58.8469 17.9326 55.4593L3.4433 40.7983C1.32652 38.8268 0 36.0125 0 32.8767V10.7894Z" fill="black"/>
<path fill-rule="evenodd" clip-rule="evenodd" d="M0 10.7894C0 4.82934 4.77276 0 10.663 0H37.337C43.2272 0 48 4.82934 48 10.7894V32.8767C48 36.0167 46.6543 38.829 44.5581 40.7969L30.0674 55.4593C26.7195 58.8469 21.2805 58.8469 17.9326 55.4593L3.4433 40.7983C1.32652 38.8268 0 36.0125 0 32.8767V10.7894Z" fill="black" fill-opacity="0.2"/>
<path fill-rule="evenodd" clip-rule="evenodd" d="M0 10.7894C0 4.82934 4.77276 0 10.663 0H37.337C43.2272 0 48 4.82934 48 10.7894V32.8767C48 36.0167 46.6543 38.829 44.5581 40.7969L30.0674 55.4593C26.7195 58.8469 21.2805 58.8469 17.9326 55.4593L3.4433 40.7983C1.32652 38.8268 0 36.0125 0 32.8767V10.7894Z" fill="black" fill-opacity="0.2"/>
<path fill-rule="evenodd" clip-rule="evenodd" d="M0 10.7894C0 4.82934 4.77276 0 10.663 0H37.337C43.2272 0 48 4.82934 48 10.7894V32.8767C48 36.0167 46.6543 38.829 44.5581 40.7969L30.0674 55.4593C26.7195 58.8469 21.2805 58.8469 17.9326 55.4593L3.4433 40.7983C1.32652 38.8268 0 36.0125 0 32.8767V10.7894Z" fill="black" fill-opacity="0.2"/>
<path fill-rule="evenodd" clip-rule="evenodd" d="M0 10.7894C0 4.82934 4.77276 0 10.663 0H37.337C43.2272 0 48 4.82934 48 10.7894V32.8767C48 36.0167 46.6543 38.829 44.5581 40.7969L30.0674 55.4593C26.7195 58.8469 21.2805 58.8469 17.9326 55.4593L3.4433 40.7983C1.32652 38.8268 0 36.0125 0 32.8767V10.7894Z" fill="black" fill-opacity="0.2"/>
<path fill-rule="evenodd" clip-rule="evenodd" d="M0 10.7894C0 4.82934 4.77276 0 10.663 0H37.337C43.2272 0 48 4.82934 48 10.7894V32.8767C48 36.0167 46.6543 38.829 44.5581 40.7969L30.0674 55.4593C26.7195 58.8469 21.2805 58.8469 17.9326 55.4593L3.4433 40.7983C1.32652 38.8268 0 36.0125 0 32.8767V10.7894Z" fill="black" fill-opacity="0.2"/>
<path fill-rule="evenodd" clip-rule="evenodd" d="M0 10.7894C0 4.82934 4.77276 0 10.663 0H37.337C43.2272 0 48 4.82934 48 10.7894V32.8767C48 36.0167 46.6543 38.829 44.5581 40.7969L30.0674 55.4593C26.7195 58.8469 21.2805 58.8469 17.9326 55.4593L3.4433 40.7983C1.32652 38.8268 0 36.0125 0 32.8767V10.7894Z" fill="black" fill-opacity="0.2"/>
<path fill-rule="evenodd" clip-rule="evenodd" d="M0 10.7894C0 4.82934 4.77276 0 10.663 0H37.337C43.2272 0 48 4.82934 48 10.7894V32.8767C48 36.0167 46.6543 38.829 44.5581 40.7969L30.0674 55.4593C26.7195 58.8469 21.2805 58.8469 17.9326 55.4593L3.4433 40.7983C1.32652 38.8268 0 36.0125 0 32.8767V10.7894Z" fill="black" fill-opacity="0.2"/>
<g clip-path="url(#clip0_3021_22935)">
<path d="M29.5 24C30.3284 24 31 23.3284 31 22.5C31 21.6716 30.3284 21 29.5 21C28.6716 21 28 21.6716 28 22.5C28 23.3284 28.6716 24 29.5 24Z" fill="white"/>
<path d="M21 17H26" stroke="white" stroke-width="2" stroke-linejoin="round"/>
<path d="M34 13H25" stroke="white" stroke-width="2" stroke-linejoin="round"/>
<path d="M8 26C8 25.2044 8.31607 24.4413 8.87868 23.8787C9.44129 23.3161 10.2044 23 11 23" stroke="white" stroke-width="2" stroke-linejoin="round"/>
<path d="M34.5425 20H35C35.5304 20 36.0391 20.2107 36.4142 20.5858C36.7893 20.9609 37 21.4696 37 22V26C37 26.5304 36.7893 27.0391 36.4142 27.4142C36.0391 27.7893 35.5304 28 35 28H34L31.7375 34.3363C31.6681 34.5306 31.5403 34.6988 31.3715 34.8176C31.2028 34.9364 31.0014 35.0002 30.795 35H29.205C28.9986 35.0002 28.7972 34.9364 28.6285 34.8176C28.4597 34.6988 28.3319 34.5306 28.2625 34.3363L27.7863 33H19.2138L18.7375 34.3363C18.6681 34.5306 18.5403 34.6988 18.3715 34.8176C18.2028 34.9364 18.0014 35.0002 17.795 35H16.205C15.9986 35.0002 15.7972 34.9364 15.6285 34.8176C15.4597 34.6988 15.3319 34.5306 15.2625 34.3363L13.625 29.75C11.9342 27.909 10.9972 25.4996 11 23C11 20.3478 12.0536 17.8043 13.9289 15.9289C15.8043 14.0536 18.3478 13 21 13H25C26.9514 12.9994 28.8603 13.5698 30.4915 14.6408C32.1226 15.7118 33.4048 17.2367 34.18 19.0275C34.3171 19.3454 34.4381 19.6699 34.5425 20Z" stroke="white" stroke-width="2" stroke-linejoin="round"/>
</g>
<defs>
<clipPath id="clip0_3021_22935">
<rect width="32" height="32" fill="white" transform="translate(7 8)"/>
</clipPath>
</defs>
</svg>
