<svg width="49" height="59" viewBox="0 0 49 59" fill="none" xmlns="http://www.w3.org/2000/svg">
<path fill-rule="evenodd" clip-rule="evenodd" d="M0.5 11.3636C0.5 5.40355 5.27276 0.574219 11.163 0.574219H37.837C43.7272 0.574219 48.5 5.40356 48.5 11.3636V33.4509C48.5 36.5909 47.1543 39.4032 45.0581 41.3711L30.5674 56.0335C27.2195 59.4211 21.7805 59.4211 18.4326 56.0335L3.9433 41.3725C1.82652 39.4011 0.5 36.5867 0.5 33.4509V11.3636Z" fill="black"/>
<path fill-rule="evenodd" clip-rule="evenodd" d="M0.5 11.3636C0.5 5.40355 5.27276 0.574219 11.163 0.574219H37.837C43.7272 0.574219 48.5 5.40356 48.5 11.3636V33.4509C48.5 36.5909 47.1543 39.4032 45.0581 41.3711L30.5674 56.0335C27.2195 59.4211 21.7805 59.4211 18.4326 56.0335L3.9433 41.3725C1.82652 39.4011 0.5 36.5867 0.5 33.4509V11.3636Z" fill="black" fill-opacity="0.2"/>
<path fill-rule="evenodd" clip-rule="evenodd" d="M0.5 11.3636C0.5 5.40355 5.27276 0.574219 11.163 0.574219H37.837C43.7272 0.574219 48.5 5.40356 48.5 11.3636V33.4509C48.5 36.5909 47.1543 39.4032 45.0581 41.3711L30.5674 56.0335C27.2195 59.4211 21.7805 59.4211 18.4326 56.0335L3.9433 41.3725C1.82652 39.4011 0.5 36.5867 0.5 33.4509V11.3636Z" fill="black" fill-opacity="0.2"/>
<path fill-rule="evenodd" clip-rule="evenodd" d="M0.5 11.3636C0.5 5.40355 5.27276 0.574219 11.163 0.574219H37.837C43.7272 0.574219 48.5 5.40356 48.5 11.3636V33.4509C48.5 36.5909 47.1543 39.4032 45.0581 41.3711L30.5674 56.0335C27.2195 59.4211 21.7805 59.4211 18.4326 56.0335L3.9433 41.3725C1.82652 39.4011 0.5 36.5867 0.5 33.4509V11.3636Z" fill="black" fill-opacity="0.2"/>
<path fill-rule="evenodd" clip-rule="evenodd" d="M0.5 11.3636C0.5 5.40355 5.27276 0.574219 11.163 0.574219H37.837C43.7272 0.574219 48.5 5.40356 48.5 11.3636V33.4509C48.5 36.5909 47.1543 39.4032 45.0581 41.3711L30.5674 56.0335C27.2195 59.4211 21.7805 59.4211 18.4326 56.0335L3.9433 41.3725C1.82652 39.4011 0.5 36.5867 0.5 33.4509V11.3636Z" fill="black" fill-opacity="0.2"/>
<path fill-rule="evenodd" clip-rule="evenodd" d="M0.5 11.3636C0.5 5.40355 5.27276 0.574219 11.163 0.574219H37.837C43.7272 0.574219 48.5 5.40356 48.5 11.3636V33.4509C48.5 36.5909 47.1543 39.4032 45.0581 41.3711L30.5674 56.0335C27.2195 59.4211 21.7805 59.4211 18.4326 56.0335L3.9433 41.3725C1.82652 39.4011 0.5 36.5867 0.5 33.4509V11.3636Z" fill="black" fill-opacity="0.2"/>
<path fill-rule="evenodd" clip-rule="evenodd" d="M0.5 11.3636C0.5 5.40355 5.27276 0.574219 11.163 0.574219H37.837C43.7272 0.574219 48.5 5.40356 48.5 11.3636V33.4509C48.5 36.5909 47.1543 39.4032 45.0581 41.3711L30.5674 56.0335C27.2195 59.4211 21.7805 59.4211 18.4326 56.0335L3.9433 41.3725C1.82652 39.4011 0.5 36.5867 0.5 33.4509V11.3636Z" fill="black" fill-opacity="0.2"/>
<path fill-rule="evenodd" clip-rule="evenodd" d="M0.5 11.3636C0.5 5.40355 5.27276 0.574219 11.163 0.574219H37.837C43.7272 0.574219 48.5 5.40356 48.5 11.3636V33.4509C48.5 36.5909 47.1543 39.4032 45.0581 41.3711L30.5674 56.0335C27.2195 59.4211 21.7805 59.4211 18.4326 56.0335L3.9433 41.3725C1.82652 39.4011 0.5 36.5867 0.5 33.4509V11.3636Z" fill="black" fill-opacity="0.2"/>
<path d="M24.0932 38.3142C36.0632 32.0942 34.6332 16.8342 34.6332 16.8342C27.4332 17.9042 24.0932 13.5742 24.0932 13.5742V13.5942C24.0932 13.5942 20.7532 17.9142 13.5532 16.8542C13.5532 16.8542 12.1232 32.1142 24.0932 38.3342V38.3142Z" stroke="white" stroke-width="2.2" stroke-linecap="square" stroke-linejoin="round"/>
<path d="M29.4294 21.8047L22.6794 28.5547L19.6094 25.4847" stroke="white" stroke-width="2.2" stroke-linecap="square" stroke-linejoin="round"/>
</svg>
