<svg width="50" height="50" viewBox="0 0 50 50" fill="none" xmlns="http://www.w3.org/2000/svg">
<circle cx="25" cy="25" r="25" fill="#FFF5E0"/>
<path d="M31 15V35" stroke="black" stroke-width="2" stroke-linecap="round" stroke-linejoin="round"/>
<path d="M31 15V35" stroke="black" stroke-opacity="0.2" stroke-width="2" stroke-linecap="round" stroke-linejoin="round"/>
<path d="M31 15V35" stroke="black" stroke-opacity="0.2" stroke-width="2" stroke-linecap="round" stroke-linejoin="round"/>
<path d="M31 15V35" stroke="black" stroke-opacity="0.2" stroke-width="2" stroke-linecap="round" stroke-linejoin="round"/>
<path d="M31 15V35" stroke="black" stroke-opacity="0.2" stroke-width="2" stroke-linecap="round" stroke-linejoin="round"/>
<path d="M31 15V35" stroke="black" stroke-opacity="0.2" stroke-width="2" stroke-linecap="round" stroke-linejoin="round"/>
<path d="M31 15V35" stroke="black" stroke-opacity="0.2" stroke-width="2" stroke-linecap="round" stroke-linejoin="round"/>
<path d="M31 15V35" stroke="black" stroke-opacity="0.2" stroke-width="2" stroke-linecap="round" stroke-linejoin="round"/>
<path d="M26 15V35" stroke="black" stroke-width="2" stroke-linecap="round" stroke-linejoin="round"/>
<path d="M26 15V35" stroke="black" stroke-opacity="0.2" stroke-width="2" stroke-linecap="round" stroke-linejoin="round"/>
<path d="M26 15V35" stroke="black" stroke-opacity="0.2" stroke-width="2" stroke-linecap="round" stroke-linejoin="round"/>
<path d="M26 15V35" stroke="black" stroke-opacity="0.2" stroke-width="2" stroke-linecap="round" stroke-linejoin="round"/>
<path d="M26 15V35" stroke="black" stroke-opacity="0.2" stroke-width="2" stroke-linecap="round" stroke-linejoin="round"/>
<path d="M26 15V35" stroke="black" stroke-opacity="0.2" stroke-width="2" stroke-linecap="round" stroke-linejoin="round"/>
<path d="M26 15V35" stroke="black" stroke-opacity="0.2" stroke-width="2" stroke-linecap="round" stroke-linejoin="round"/>
<path d="M26 15V35" stroke="black" stroke-opacity="0.2" stroke-width="2" stroke-linecap="round" stroke-linejoin="round"/>
<path d="M26 29H20C18.1435 29 16.363 28.2625 15.0503 26.9497C13.7375 25.637 13 23.8565 13 22C13 20.1435 13.7375 18.363 15.0503 17.0503C16.363 15.7375 18.1435 15 20 15H34" stroke="black" stroke-width="2" stroke-linecap="round" stroke-linejoin="round"/>
<path d="M26 29H20C18.1435 29 16.363 28.2625 15.0503 26.9497C13.7375 25.637 13 23.8565 13 22C13 20.1435 13.7375 18.363 15.0503 17.0503C16.363 15.7375 18.1435 15 20 15H34" stroke="black" stroke-opacity="0.2" stroke-width="2" stroke-linecap="round" stroke-linejoin="round"/>
<path d="M26 29H20C18.1435 29 16.363 28.2625 15.0503 26.9497C13.7375 25.637 13 23.8565 13 22C13 20.1435 13.7375 18.363 15.0503 17.0503C16.363 15.7375 18.1435 15 20 15H34" stroke="black" stroke-opacity="0.2" stroke-width="2" stroke-linecap="round" stroke-linejoin="round"/>
<path d="M26 29H20C18.1435 29 16.363 28.2625 15.0503 26.9497C13.7375 25.637 13 23.8565 13 22C13 20.1435 13.7375 18.363 15.0503 17.0503C16.363 15.7375 18.1435 15 20 15H34" stroke="black" stroke-opacity="0.2" stroke-width="2" stroke-linecap="round" stroke-linejoin="round"/>
<path d="M26 29H20C18.1435 29 16.363 28.2625 15.0503 26.9497C13.7375 25.637 13 23.8565 13 22C13 20.1435 13.7375 18.363 15.0503 17.0503C16.363 15.7375 18.1435 15 20 15H34" stroke="black" stroke-opacity="0.2" stroke-width="2" stroke-linecap="round" stroke-linejoin="round"/>
<path d="M26 29H20C18.1435 29 16.363 28.2625 15.0503 26.9497C13.7375 25.637 13 23.8565 13 22C13 20.1435 13.7375 18.363 15.0503 17.0503C16.363 15.7375 18.1435 15 20 15H34" stroke="black" stroke-opacity="0.2" stroke-width="2" stroke-linecap="round" stroke-linejoin="round"/>
<path d="M26 29H20C18.1435 29 16.363 28.2625 15.0503 26.9497C13.7375 25.637 13 23.8565 13 22C13 20.1435 13.7375 18.363 15.0503 17.0503C16.363 15.7375 18.1435 15 20 15H34" stroke="black" stroke-opacity="0.2" stroke-width="2" stroke-linecap="round" stroke-linejoin="round"/>
<path d="M26 29H20C18.1435 29 16.363 28.2625 15.0503 26.9497C13.7375 25.637 13 23.8565 13 22C13 20.1435 13.7375 18.363 15.0503 17.0503C16.363 15.7375 18.1435 15 20 15H34" stroke="black" stroke-opacity="0.2" stroke-width="2" stroke-linecap="round" stroke-linejoin="round"/>
</svg>
