<svg width="50" height="50" viewBox="0 0 50 50" fill="none" xmlns="http://www.w3.org/2000/svg">
<circle cx="25" cy="25" r="25" fill="#E8E8FF"/>
<path d="M22 31C22 31.7956 22.3161 32.5587 22.8787 33.1213C23.4413 33.6839 24.2044 34 25 34C25.7956 34 26.5587 33.6839 27.1213 33.1213C27.6839 32.5587 28 31.7956 28 31" stroke="black" stroke-width="2" stroke-linecap="round" stroke-linejoin="round"/>
<path d="M30.25 15.25C31.6983 16.1741 32.873 17.4689 33.6522 19" stroke="black" stroke-width="2" stroke-linecap="round" stroke-linejoin="round"/>
<path d="M16.3477 19C17.1269 17.4689 18.3016 16.1741 19.7498 15.25" stroke="black" stroke-width="2" stroke-linecap="round" stroke-linejoin="round"/>
<path d="M18.2494 23.5C18.2494 21.7098 18.9606 19.9929 20.2264 18.727C21.4923 17.4612 23.2092 16.75 24.9994 16.75C26.7896 16.75 28.5065 17.4612 29.7724 18.727C31.0382 19.9929 31.7494 21.7098 31.7494 23.5C31.7494 26.8581 32.5275 28.8063 33.1463 29.875C33.212 29.9888 33.2466 30.1179 33.2468 30.2493C33.2469 30.3808 33.2124 30.5099 33.1469 30.6239C33.0814 30.7378 32.9871 30.8325 32.8735 30.8985C32.7598 30.9645 32.6308 30.9995 32.4994 31H17.4994C17.3681 30.9992 17.2394 30.964 17.126 30.8978C17.0126 30.8317 16.9186 30.7369 16.8533 30.6231C16.788 30.5092 16.7537 30.3801 16.7539 30.2489C16.7541 30.1176 16.7888 29.9887 16.8544 29.875C17.4722 28.8063 18.2494 26.8572 18.2494 23.5Z" stroke="black" stroke-width="2" stroke-linecap="round" stroke-linejoin="round"/>
</svg>
