<svg width="50" height="50" viewBox="0 0 50 50" fill="none" xmlns="http://www.w3.org/2000/svg">
<circle cx="25" cy="25" r="25" fill="#EDF8FF"/>
<path d="M33 25.75C32.6184 30.37 28.7184 34 24 34C21.6131 34 19.3239 33.0518 17.636 31.364C15.9482 29.6761 15 27.3869 15 25C15 20.2816 18.63 16.3816 23.25 16" stroke="black" stroke-width="2" stroke-linecap="round" stroke-linejoin="round"/>
<path d="M24 19.75V25H29.25" stroke="black" stroke-width="2" stroke-linecap="round" stroke-linejoin="round"/>
<path d="M27 17.5C27.6213 17.5 28.125 16.9963 28.125 16.375C28.125 15.7537 27.6213 15.25 27 15.25C26.3787 15.25 25.875 15.7537 25.875 16.375C25.875 16.9963 26.3787 17.5 27 17.5Z" fill="black"/>
<path d="M30.375 19.75C30.9963 19.75 31.5 19.2463 31.5 18.625C31.5 18.0037 30.9963 17.5 30.375 17.5C29.7537 17.5 29.25 18.0037 29.25 18.625C29.25 19.2463 29.7537 19.75 30.375 19.75Z" fill="black"/>
<path d="M32.625 23.125C33.2463 23.125 33.75 22.6213 33.75 22C33.75 21.3787 33.2463 20.875 32.625 20.875C32.0037 20.875 31.5 21.3787 31.5 22C31.5 22.6213 32.0037 23.125 32.625 23.125Z" fill="black"/>
</svg>
