<svg width="50" height="50" viewBox="0 0 50 50" fill="none" xmlns="http://www.w3.org/2000/svg">
<circle cx="25" cy="25" r="25" fill="#FFF5E0"/>
<path d="M25 37C31.6274 37 37 31.6274 37 25C37 18.3726 31.6274 13 25 13C18.3726 13 13 18.3726 13 25C13 31.6274 18.3726 37 25 37Z" stroke="black" stroke-width="2" stroke-linecap="round" stroke-linejoin="round"/>
<path d="M25 37C31.6274 37 37 31.6274 37 25C37 18.3726 31.6274 13 25 13C18.3726 13 13 18.3726 13 25C13 31.6274 18.3726 37 25 37Z" stroke="black" stroke-opacity="0.2" stroke-width="2" stroke-linecap="round" stroke-linejoin="round"/>
<path d="M25 37C31.6274 37 37 31.6274 37 25C37 18.3726 31.6274 13 25 13C18.3726 13 13 18.3726 13 25C13 31.6274 18.3726 37 25 37Z" stroke="black" stroke-opacity="0.2" stroke-width="2" stroke-linecap="round" stroke-linejoin="round"/>
<path d="M25 37C31.6274 37 37 31.6274 37 25C37 18.3726 31.6274 13 25 13C18.3726 13 13 18.3726 13 25C13 31.6274 18.3726 37 25 37Z" stroke="black" stroke-opacity="0.2" stroke-width="2" stroke-linecap="round" stroke-linejoin="round"/>
<path d="M25 37C31.6274 37 37 31.6274 37 25C37 18.3726 31.6274 13 25 13C18.3726 13 13 18.3726 13 25C13 31.6274 18.3726 37 25 37Z" stroke="black" stroke-opacity="0.2" stroke-width="2" stroke-linecap="round" stroke-linejoin="round"/>
<path d="M25 37C31.6274 37 37 31.6274 37 25C37 18.3726 31.6274 13 25 13C18.3726 13 13 18.3726 13 25C13 31.6274 18.3726 37 25 37Z" stroke="black" stroke-opacity="0.2" stroke-width="2" stroke-linecap="round" stroke-linejoin="round"/>
<path d="M25 37C31.6274 37 37 31.6274 37 25C37 18.3726 31.6274 13 25 13C18.3726 13 13 18.3726 13 25C13 31.6274 18.3726 37 25 37Z" stroke="black" stroke-opacity="0.2" stroke-width="2" stroke-linecap="round" stroke-linejoin="round"/>
<path d="M25 37C31.6274 37 37 31.6274 37 25C37 18.3726 31.6274 13 25 13C18.3726 13 13 18.3726 13 25C13 31.6274 18.3726 37 25 37Z" stroke="black" stroke-opacity="0.2" stroke-width="2" stroke-linecap="round" stroke-linejoin="round"/>
<path d="M25 18V25H32" stroke="black" stroke-width="2" stroke-linecap="round" stroke-linejoin="round"/>
<path d="M25 18V25H32" stroke="black" stroke-opacity="0.2" stroke-width="2" stroke-linecap="round" stroke-linejoin="round"/>
<path d="M25 18V25H32" stroke="black" stroke-opacity="0.2" stroke-width="2" stroke-linecap="round" stroke-linejoin="round"/>
<path d="M25 18V25H32" stroke="black" stroke-opacity="0.2" stroke-width="2" stroke-linecap="round" stroke-linejoin="round"/>
<path d="M25 18V25H32" stroke="black" stroke-opacity="0.2" stroke-width="2" stroke-linecap="round" stroke-linejoin="round"/>
<path d="M25 18V25H32" stroke="black" stroke-opacity="0.2" stroke-width="2" stroke-linecap="round" stroke-linejoin="round"/>
<path d="M25 18V25H32" stroke="black" stroke-opacity="0.2" stroke-width="2" stroke-linecap="round" stroke-linejoin="round"/>
<path d="M25 18V25H32" stroke="black" stroke-opacity="0.2" stroke-width="2" stroke-linecap="round" stroke-linejoin="round"/>
</svg>
