<svg width="50" height="50" viewBox="0 0 50 50" fill="none" xmlns="http://www.w3.org/2000/svg">
<circle cx="25" cy="25" r="25" fill="#FEFFE0"/>
<path d="M16.5 16.75L31.5 33.25" stroke="black" stroke-width="2" stroke-linecap="round" stroke-linejoin="round"/>
<path d="M21 31C21 31.7956 21.3161 32.5587 21.8787 33.1213C22.4413 33.6839 23.2044 34 24 34C24.7956 34 25.5587 33.6839 26.1213 33.1213C26.6839 32.5587 27 31.7956 27 31" stroke="black" stroke-width="2" stroke-linecap="round" stroke-linejoin="round"/>
<path d="M20.6719 16.8786C21.6988 16.2962 22.8605 15.9933 24.041 16.0001C25.2216 16.007 26.3797 16.3233 27.3998 16.9176C28.4198 17.5119 29.2662 18.3633 29.8544 19.3869C30.4426 20.4105 30.7521 21.5705 30.7519 22.7511C30.7519 25.4792 31.2656 27.7723 31.7897 29.1073" stroke="black" stroke-width="2" stroke-linecap="round" stroke-linejoin="round"/>
<path d="M29.4538 30.9978H16.4994C16.3681 30.997 16.2394 30.9618 16.126 30.8956C16.0126 30.8295 15.9186 30.7347 15.8533 30.6209C15.788 30.507 15.7537 30.378 15.7539 30.2467C15.7541 30.1154 15.7888 29.9865 15.8544 29.8728C16.4722 28.8041 17.2494 26.105 17.2494 22.7478C17.2471 21.3716 17.6677 20.0279 18.4541 18.8984" stroke="black" stroke-width="2" stroke-linecap="round" stroke-linejoin="round"/>
</svg>
