<svg width="50" height="50" viewBox="0 0 50 50" fill="none" xmlns="http://www.w3.org/2000/svg">
<circle cx="25" cy="25" r="25" fill="#FFF5E0"/>
<g clip-path="url(#clip0_3026_22934)">
<path d="M19 34C21.2091 34 23 32.2091 23 30C23 27.7909 21.2091 26 19 26C16.7909 26 15 27.7909 15 30C15 32.2091 16.7909 34 19 34Z" stroke="black" stroke-width="2" stroke-linecap="round" stroke-linejoin="round"/>
<path d="M19 34C21.2091 34 23 32.2091 23 30C23 27.7909 21.2091 26 19 26C16.7909 26 15 27.7909 15 30C15 32.2091 16.7909 34 19 34Z" stroke="black" stroke-opacity="0.2" stroke-width="2" stroke-linecap="round" stroke-linejoin="round"/>
<path d="M19 34C21.2091 34 23 32.2091 23 30C23 27.7909 21.2091 26 19 26C16.7909 26 15 27.7909 15 30C15 32.2091 16.7909 34 19 34Z" stroke="black" stroke-opacity="0.2" stroke-width="2" stroke-linecap="round" stroke-linejoin="round"/>
<path d="M19 34C21.2091 34 23 32.2091 23 30C23 27.7909 21.2091 26 19 26C16.7909 26 15 27.7909 15 30C15 32.2091 16.7909 34 19 34Z" stroke="black" stroke-opacity="0.2" stroke-width="2" stroke-linecap="round" stroke-linejoin="round"/>
<path d="M19 34C21.2091 34 23 32.2091 23 30C23 27.7909 21.2091 26 19 26C16.7909 26 15 27.7909 15 30C15 32.2091 16.7909 34 19 34Z" stroke="black" stroke-opacity="0.2" stroke-width="2" stroke-linecap="round" stroke-linejoin="round"/>
<path d="M19 34C21.2091 34 23 32.2091 23 30C23 27.7909 21.2091 26 19 26C16.7909 26 15 27.7909 15 30C15 32.2091 16.7909 34 19 34Z" stroke="black" stroke-opacity="0.2" stroke-width="2" stroke-linecap="round" stroke-linejoin="round"/>
<path d="M19 34C21.2091 34 23 32.2091 23 30C23 27.7909 21.2091 26 19 26C16.7909 26 15 27.7909 15 30C15 32.2091 16.7909 34 19 34Z" stroke="black" stroke-opacity="0.2" stroke-width="2" stroke-linecap="round" stroke-linejoin="round"/>
<path d="M19 34C21.2091 34 23 32.2091 23 30C23 27.7909 21.2091 26 19 26C16.7909 26 15 27.7909 15 30C15 32.2091 16.7909 34 19 34Z" stroke="black" stroke-opacity="0.2" stroke-width="2" stroke-linecap="round" stroke-linejoin="round"/>
<path d="M19 21C21.2091 21 23 19.2091 23 17C23 14.7909 21.2091 13 19 13C16.7909 13 15 14.7909 15 17C15 19.2091 16.7909 21 19 21Z" stroke="black" stroke-width="2" stroke-linecap="round" stroke-linejoin="round"/>
<path d="M19 21C21.2091 21 23 19.2091 23 17C23 14.7909 21.2091 13 19 13C16.7909 13 15 14.7909 15 17C15 19.2091 16.7909 21 19 21Z" stroke="black" stroke-opacity="0.2" stroke-width="2" stroke-linecap="round" stroke-linejoin="round"/>
<path d="M19 21C21.2091 21 23 19.2091 23 17C23 14.7909 21.2091 13 19 13C16.7909 13 15 14.7909 15 17C15 19.2091 16.7909 21 19 21Z" stroke="black" stroke-opacity="0.2" stroke-width="2" stroke-linecap="round" stroke-linejoin="round"/>
<path d="M19 21C21.2091 21 23 19.2091 23 17C23 14.7909 21.2091 13 19 13C16.7909 13 15 14.7909 15 17C15 19.2091 16.7909 21 19 21Z" stroke="black" stroke-opacity="0.2" stroke-width="2" stroke-linecap="round" stroke-linejoin="round"/>
<path d="M19 21C21.2091 21 23 19.2091 23 17C23 14.7909 21.2091 13 19 13C16.7909 13 15 14.7909 15 17C15 19.2091 16.7909 21 19 21Z" stroke="black" stroke-opacity="0.2" stroke-width="2" stroke-linecap="round" stroke-linejoin="round"/>
<path d="M19 21C21.2091 21 23 19.2091 23 17C23 14.7909 21.2091 13 19 13C16.7909 13 15 14.7909 15 17C15 19.2091 16.7909 21 19 21Z" stroke="black" stroke-opacity="0.2" stroke-width="2" stroke-linecap="round" stroke-linejoin="round"/>
<path d="M19 21C21.2091 21 23 19.2091 23 17C23 14.7909 21.2091 13 19 13C16.7909 13 15 14.7909 15 17C15 19.2091 16.7909 21 19 21Z" stroke="black" stroke-opacity="0.2" stroke-width="2" stroke-linecap="round" stroke-linejoin="round"/>
<path d="M19 21C21.2091 21 23 19.2091 23 17C23 14.7909 21.2091 13 19 13C16.7909 13 15 14.7909 15 17C15 19.2091 16.7909 21 19 21Z" stroke="black" stroke-opacity="0.2" stroke-width="2" stroke-linecap="round" stroke-linejoin="round"/>
<path d="M31 34C33.2091 34 35 32.2091 35 30C35 27.7909 33.2091 26 31 26C28.7909 26 27 27.7909 27 30C27 32.2091 28.7909 34 31 34Z" stroke="black" stroke-width="2" stroke-linecap="round" stroke-linejoin="round"/>
<path d="M31 34C33.2091 34 35 32.2091 35 30C35 27.7909 33.2091 26 31 26C28.7909 26 27 27.7909 27 30C27 32.2091 28.7909 34 31 34Z" stroke="black" stroke-opacity="0.2" stroke-width="2" stroke-linecap="round" stroke-linejoin="round"/>
<path d="M31 34C33.2091 34 35 32.2091 35 30C35 27.7909 33.2091 26 31 26C28.7909 26 27 27.7909 27 30C27 32.2091 28.7909 34 31 34Z" stroke="black" stroke-opacity="0.2" stroke-width="2" stroke-linecap="round" stroke-linejoin="round"/>
<path d="M31 34C33.2091 34 35 32.2091 35 30C35 27.7909 33.2091 26 31 26C28.7909 26 27 27.7909 27 30C27 32.2091 28.7909 34 31 34Z" stroke="black" stroke-opacity="0.2" stroke-width="2" stroke-linecap="round" stroke-linejoin="round"/>
<path d="M31 34C33.2091 34 35 32.2091 35 30C35 27.7909 33.2091 26 31 26C28.7909 26 27 27.7909 27 30C27 32.2091 28.7909 34 31 34Z" stroke="black" stroke-opacity="0.2" stroke-width="2" stroke-linecap="round" stroke-linejoin="round"/>
<path d="M31 34C33.2091 34 35 32.2091 35 30C35 27.7909 33.2091 26 31 26C28.7909 26 27 27.7909 27 30C27 32.2091 28.7909 34 31 34Z" stroke="black" stroke-opacity="0.2" stroke-width="2" stroke-linecap="round" stroke-linejoin="round"/>
<path d="M31 34C33.2091 34 35 32.2091 35 30C35 27.7909 33.2091 26 31 26C28.7909 26 27 27.7909 27 30C27 32.2091 28.7909 34 31 34Z" stroke="black" stroke-opacity="0.2" stroke-width="2" stroke-linecap="round" stroke-linejoin="round"/>
<path d="M31 34C33.2091 34 35 32.2091 35 30C35 27.7909 33.2091 26 31 26C28.7909 26 27 27.7909 27 30C27 32.2091 28.7909 34 31 34Z" stroke="black" stroke-opacity="0.2" stroke-width="2" stroke-linecap="round" stroke-linejoin="round"/>
<path d="M13 37C13.6986 36.0685 14.6045 35.3125 15.6459 34.7918C16.6873 34.2711 17.8357 34 19 34C20.1643 34 21.3127 34.2711 22.3541 34.7918C23.3955 35.3125 24.3014 36.0685 25 37C25.6986 36.0685 26.6045 35.3125 27.6459 34.7918C28.6873 34.2711 29.8357 34 31 34C32.1643 34 33.3127 34.2711 34.3541 34.7918C35.3955 35.3125 36.3014 36.0685 37 37" stroke="black" stroke-width="2" stroke-linecap="round" stroke-linejoin="round"/>
<path d="M13 37C13.6986 36.0685 14.6045 35.3125 15.6459 34.7918C16.6873 34.2711 17.8357 34 19 34C20.1643 34 21.3127 34.2711 22.3541 34.7918C23.3955 35.3125 24.3014 36.0685 25 37C25.6986 36.0685 26.6045 35.3125 27.6459 34.7918C28.6873 34.2711 29.8357 34 31 34C32.1643 34 33.3127 34.2711 34.3541 34.7918C35.3955 35.3125 36.3014 36.0685 37 37" stroke="black" stroke-opacity="0.2" stroke-width="2" stroke-linecap="round" stroke-linejoin="round"/>
<path d="M13 37C13.6986 36.0685 14.6045 35.3125 15.6459 34.7918C16.6873 34.2711 17.8357 34 19 34C20.1643 34 21.3127 34.2711 22.3541 34.7918C23.3955 35.3125 24.3014 36.0685 25 37C25.6986 36.0685 26.6045 35.3125 27.6459 34.7918C28.6873 34.2711 29.8357 34 31 34C32.1643 34 33.3127 34.2711 34.3541 34.7918C35.3955 35.3125 36.3014 36.0685 37 37" stroke="black" stroke-opacity="0.2" stroke-width="2" stroke-linecap="round" stroke-linejoin="round"/>
<path d="M13 37C13.6986 36.0685 14.6045 35.3125 15.6459 34.7918C16.6873 34.2711 17.8357 34 19 34C20.1643 34 21.3127 34.2711 22.3541 34.7918C23.3955 35.3125 24.3014 36.0685 25 37C25.6986 36.0685 26.6045 35.3125 27.6459 34.7918C28.6873 34.2711 29.8357 34 31 34C32.1643 34 33.3127 34.2711 34.3541 34.7918C35.3955 35.3125 36.3014 36.0685 37 37" stroke="black" stroke-opacity="0.2" stroke-width="2" stroke-linecap="round" stroke-linejoin="round"/>
<path d="M13 37C13.6986 36.0685 14.6045 35.3125 15.6459 34.7918C16.6873 34.2711 17.8357 34 19 34C20.1643 34 21.3127 34.2711 22.3541 34.7918C23.3955 35.3125 24.3014 36.0685 25 37C25.6986 36.0685 26.6045 35.3125 27.6459 34.7918C28.6873 34.2711 29.8357 34 31 34C32.1643 34 33.3127 34.2711 34.3541 34.7918C35.3955 35.3125 36.3014 36.0685 37 37" stroke="black" stroke-opacity="0.2" stroke-width="2" stroke-linecap="round" stroke-linejoin="round"/>
<path d="M13 37C13.6986 36.0685 14.6045 35.3125 15.6459 34.7918C16.6873 34.2711 17.8357 34 19 34C20.1643 34 21.3127 34.2711 22.3541 34.7918C23.3955 35.3125 24.3014 36.0685 25 37C25.6986 36.0685 26.6045 35.3125 27.6459 34.7918C28.6873 34.2711 29.8357 34 31 34C32.1643 34 33.3127 34.2711 34.3541 34.7918C35.3955 35.3125 36.3014 36.0685 37 37" stroke="black" stroke-opacity="0.2" stroke-width="2" stroke-linecap="round" stroke-linejoin="round"/>
<path d="M13 37C13.6986 36.0685 14.6045 35.3125 15.6459 34.7918C16.6873 34.2711 17.8357 34 19 34C20.1643 34 21.3127 34.2711 22.3541 34.7918C23.3955 35.3125 24.3014 36.0685 25 37C25.6986 36.0685 26.6045 35.3125 27.6459 34.7918C28.6873 34.2711 29.8357 34 31 34C32.1643 34 33.3127 34.2711 34.3541 34.7918C35.3955 35.3125 36.3014 36.0685 37 37" stroke="black" stroke-opacity="0.2" stroke-width="2" stroke-linecap="round" stroke-linejoin="round"/>
<path d="M13 37C13.6986 36.0685 14.6045 35.3125 15.6459 34.7918C16.6873 34.2711 17.8357 34 19 34C20.1643 34 21.3127 34.2711 22.3541 34.7918C23.3955 35.3125 24.3014 36.0685 25 37C25.6986 36.0685 26.6045 35.3125 27.6459 34.7918C28.6873 34.2711 29.8357 34 31 34C32.1643 34 33.3127 34.2711 34.3541 34.7918C35.3955 35.3125 36.3014 36.0685 37 37" stroke="black" stroke-opacity="0.2" stroke-width="2" stroke-linecap="round" stroke-linejoin="round"/>
<path d="M31 21C33.2091 21 35 19.2091 35 17C35 14.7909 33.2091 13 31 13C28.7909 13 27 14.7909 27 17C27 19.2091 28.7909 21 31 21Z" stroke="black" stroke-width="2" stroke-linecap="round" stroke-linejoin="round"/>
<path d="M31 21C33.2091 21 35 19.2091 35 17C35 14.7909 33.2091 13 31 13C28.7909 13 27 14.7909 27 17C27 19.2091 28.7909 21 31 21Z" stroke="black" stroke-opacity="0.2" stroke-width="2" stroke-linecap="round" stroke-linejoin="round"/>
<path d="M31 21C33.2091 21 35 19.2091 35 17C35 14.7909 33.2091 13 31 13C28.7909 13 27 14.7909 27 17C27 19.2091 28.7909 21 31 21Z" stroke="black" stroke-opacity="0.2" stroke-width="2" stroke-linecap="round" stroke-linejoin="round"/>
<path d="M31 21C33.2091 21 35 19.2091 35 17C35 14.7909 33.2091 13 31 13C28.7909 13 27 14.7909 27 17C27 19.2091 28.7909 21 31 21Z" stroke="black" stroke-opacity="0.2" stroke-width="2" stroke-linecap="round" stroke-linejoin="round"/>
<path d="M31 21C33.2091 21 35 19.2091 35 17C35 14.7909 33.2091 13 31 13C28.7909 13 27 14.7909 27 17C27 19.2091 28.7909 21 31 21Z" stroke="black" stroke-opacity="0.2" stroke-width="2" stroke-linecap="round" stroke-linejoin="round"/>
<path d="M31 21C33.2091 21 35 19.2091 35 17C35 14.7909 33.2091 13 31 13C28.7909 13 27 14.7909 27 17C27 19.2091 28.7909 21 31 21Z" stroke="black" stroke-opacity="0.2" stroke-width="2" stroke-linecap="round" stroke-linejoin="round"/>
<path d="M31 21C33.2091 21 35 19.2091 35 17C35 14.7909 33.2091 13 31 13C28.7909 13 27 14.7909 27 17C27 19.2091 28.7909 21 31 21Z" stroke="black" stroke-opacity="0.2" stroke-width="2" stroke-linecap="round" stroke-linejoin="round"/>
<path d="M31 21C33.2091 21 35 19.2091 35 17C35 14.7909 33.2091 13 31 13C28.7909 13 27 14.7909 27 17C27 19.2091 28.7909 21 31 21Z" stroke="black" stroke-opacity="0.2" stroke-width="2" stroke-linecap="round" stroke-linejoin="round"/>
<path d="M13 24C13.6986 23.0685 14.6045 22.3125 15.6459 21.7918C16.6873 21.2711 17.8357 21 19 21C20.1643 21 21.3127 21.2711 22.3541 21.7918C23.3955 22.3125 24.3014 23.0685 25 24C25.6986 23.0685 26.6045 22.3125 27.6459 21.7918C28.6873 21.2711 29.8357 21 31 21C32.1643 21 33.3127 21.2711 34.3541 21.7918C35.3955 22.3125 36.3014 23.0685 37 24" stroke="black" stroke-width="2" stroke-linecap="round" stroke-linejoin="round"/>
<path d="M13 24C13.6986 23.0685 14.6045 22.3125 15.6459 21.7918C16.6873 21.2711 17.8357 21 19 21C20.1643 21 21.3127 21.2711 22.3541 21.7918C23.3955 22.3125 24.3014 23.0685 25 24C25.6986 23.0685 26.6045 22.3125 27.6459 21.7918C28.6873 21.2711 29.8357 21 31 21C32.1643 21 33.3127 21.2711 34.3541 21.7918C35.3955 22.3125 36.3014 23.0685 37 24" stroke="black" stroke-opacity="0.2" stroke-width="2" stroke-linecap="round" stroke-linejoin="round"/>
<path d="M13 24C13.6986 23.0685 14.6045 22.3125 15.6459 21.7918C16.6873 21.2711 17.8357 21 19 21C20.1643 21 21.3127 21.2711 22.3541 21.7918C23.3955 22.3125 24.3014 23.0685 25 24C25.6986 23.0685 26.6045 22.3125 27.6459 21.7918C28.6873 21.2711 29.8357 21 31 21C32.1643 21 33.3127 21.2711 34.3541 21.7918C35.3955 22.3125 36.3014 23.0685 37 24" stroke="black" stroke-opacity="0.2" stroke-width="2" stroke-linecap="round" stroke-linejoin="round"/>
<path d="M13 24C13.6986 23.0685 14.6045 22.3125 15.6459 21.7918C16.6873 21.2711 17.8357 21 19 21C20.1643 21 21.3127 21.2711 22.3541 21.7918C23.3955 22.3125 24.3014 23.0685 25 24C25.6986 23.0685 26.6045 22.3125 27.6459 21.7918C28.6873 21.2711 29.8357 21 31 21C32.1643 21 33.3127 21.2711 34.3541 21.7918C35.3955 22.3125 36.3014 23.0685 37 24" stroke="black" stroke-opacity="0.2" stroke-width="2" stroke-linecap="round" stroke-linejoin="round"/>
<path d="M13 24C13.6986 23.0685 14.6045 22.3125 15.6459 21.7918C16.6873 21.2711 17.8357 21 19 21C20.1643 21 21.3127 21.2711 22.3541 21.7918C23.3955 22.3125 24.3014 23.0685 25 24C25.6986 23.0685 26.6045 22.3125 27.6459 21.7918C28.6873 21.2711 29.8357 21 31 21C32.1643 21 33.3127 21.2711 34.3541 21.7918C35.3955 22.3125 36.3014 23.0685 37 24" stroke="black" stroke-opacity="0.2" stroke-width="2" stroke-linecap="round" stroke-linejoin="round"/>
<path d="M13 24C13.6986 23.0685 14.6045 22.3125 15.6459 21.7918C16.6873 21.2711 17.8357 21 19 21C20.1643 21 21.3127 21.2711 22.3541 21.7918C23.3955 22.3125 24.3014 23.0685 25 24C25.6986 23.0685 26.6045 22.3125 27.6459 21.7918C28.6873 21.2711 29.8357 21 31 21C32.1643 21 33.3127 21.2711 34.3541 21.7918C35.3955 22.3125 36.3014 23.0685 37 24" stroke="black" stroke-opacity="0.2" stroke-width="2" stroke-linecap="round" stroke-linejoin="round"/>
<path d="M13 24C13.6986 23.0685 14.6045 22.3125 15.6459 21.7918C16.6873 21.2711 17.8357 21 19 21C20.1643 21 21.3127 21.2711 22.3541 21.7918C23.3955 22.3125 24.3014 23.0685 25 24C25.6986 23.0685 26.6045 22.3125 27.6459 21.7918C28.6873 21.2711 29.8357 21 31 21C32.1643 21 33.3127 21.2711 34.3541 21.7918C35.3955 22.3125 36.3014 23.0685 37 24" stroke="black" stroke-opacity="0.2" stroke-width="2" stroke-linecap="round" stroke-linejoin="round"/>
<path d="M13 24C13.6986 23.0685 14.6045 22.3125 15.6459 21.7918C16.6873 21.2711 17.8357 21 19 21C20.1643 21 21.3127 21.2711 22.3541 21.7918C23.3955 22.3125 24.3014 23.0685 25 24C25.6986 23.0685 26.6045 22.3125 27.6459 21.7918C28.6873 21.2711 29.8357 21 31 21C32.1643 21 33.3127 21.2711 34.3541 21.7918C35.3955 22.3125 36.3014 23.0685 37 24" stroke="black" stroke-opacity="0.2" stroke-width="2" stroke-linecap="round" stroke-linejoin="round"/>
</g>
<defs>
<clipPath id="clip0_3026_22934">
<rect width="32" height="32" fill="white" transform="translate(9 9)"/>
</clipPath>
</defs>
</svg>
