<svg width="48" height="59" viewBox="0 0 48 59" fill="none" xmlns="http://www.w3.org/2000/svg">
<path fill-rule="evenodd" clip-rule="evenodd" d="M0 11.3636C0 5.40355 4.77276 0.574219 10.663 0.574219H37.337C43.2272 0.574219 48 5.40356 48 11.3636V33.4509C48 36.5909 46.6543 39.4032 44.5581 41.3711L30.0674 56.0335C26.7195 59.4211 21.2805 59.4211 17.9326 56.0335L3.4433 41.3725C1.32652 39.4011 0 36.5867 0 33.4509V11.3636Z" fill="black"/>
<path fill-rule="evenodd" clip-rule="evenodd" d="M0 11.3636C0 5.40355 4.77276 0.574219 10.663 0.574219H37.337C43.2272 0.574219 48 5.40356 48 11.3636V33.4509C48 36.5909 46.6543 39.4032 44.5581 41.3711L30.0674 56.0335C26.7195 59.4211 21.2805 59.4211 17.9326 56.0335L3.4433 41.3725C1.32652 39.4011 0 36.5867 0 33.4509V11.3636Z" fill="black" fill-opacity="0.2"/>
<path fill-rule="evenodd" clip-rule="evenodd" d="M0 11.3636C0 5.40355 4.77276 0.574219 10.663 0.574219H37.337C43.2272 0.574219 48 5.40356 48 11.3636V33.4509C48 36.5909 46.6543 39.4032 44.5581 41.3711L30.0674 56.0335C26.7195 59.4211 21.2805 59.4211 17.9326 56.0335L3.4433 41.3725C1.32652 39.4011 0 36.5867 0 33.4509V11.3636Z" fill="black" fill-opacity="0.2"/>
<path fill-rule="evenodd" clip-rule="evenodd" d="M0 11.3636C0 5.40355 4.77276 0.574219 10.663 0.574219H37.337C43.2272 0.574219 48 5.40356 48 11.3636V33.4509C48 36.5909 46.6543 39.4032 44.5581 41.3711L30.0674 56.0335C26.7195 59.4211 21.2805 59.4211 17.9326 56.0335L3.4433 41.3725C1.32652 39.4011 0 36.5867 0 33.4509V11.3636Z" fill="black" fill-opacity="0.2"/>
<path fill-rule="evenodd" clip-rule="evenodd" d="M0 11.3636C0 5.40355 4.77276 0.574219 10.663 0.574219H37.337C43.2272 0.574219 48 5.40356 48 11.3636V33.4509C48 36.5909 46.6543 39.4032 44.5581 41.3711L30.0674 56.0335C26.7195 59.4211 21.2805 59.4211 17.9326 56.0335L3.4433 41.3725C1.32652 39.4011 0 36.5867 0 33.4509V11.3636Z" fill="black" fill-opacity="0.2"/>
<path fill-rule="evenodd" clip-rule="evenodd" d="M0 11.3636C0 5.40355 4.77276 0.574219 10.663 0.574219H37.337C43.2272 0.574219 48 5.40356 48 11.3636V33.4509C48 36.5909 46.6543 39.4032 44.5581 41.3711L30.0674 56.0335C26.7195 59.4211 21.2805 59.4211 17.9326 56.0335L3.4433 41.3725C1.32652 39.4011 0 36.5867 0 33.4509V11.3636Z" fill="black" fill-opacity="0.2"/>
<path fill-rule="evenodd" clip-rule="evenodd" d="M0 11.3636C0 5.40355 4.77276 0.574219 10.663 0.574219H37.337C43.2272 0.574219 48 5.40356 48 11.3636V33.4509C48 36.5909 46.6543 39.4032 44.5581 41.3711L30.0674 56.0335C26.7195 59.4211 21.2805 59.4211 17.9326 56.0335L3.4433 41.3725C1.32652 39.4011 0 36.5867 0 33.4509V11.3636Z" fill="black" fill-opacity="0.2"/>
<path fill-rule="evenodd" clip-rule="evenodd" d="M0 11.3636C0 5.40355 4.77276 0.574219 10.663 0.574219H37.337C43.2272 0.574219 48 5.40356 48 11.3636V33.4509C48 36.5909 46.6543 39.4032 44.5581 41.3711L30.0674 56.0335C26.7195 59.4211 21.2805 59.4211 17.9326 56.0335L3.4433 41.3725C1.32652 39.4011 0 36.5867 0 33.4509V11.3636Z" fill="black" fill-opacity="0.2"/>
<circle cx="24" cy="23.5742" r="13.9" stroke="white" stroke-width="2.2"/>
<circle cx="24" cy="23.5742" r="7.9" stroke="white" stroke-width="2.2"/>
<rect x="21" y="9.57422" width="6" height="6" fill="white"/>
<rect x="16.2422" y="26.5742" width="6" height="6" transform="rotate(45 16.2422 26.5742)" fill="white"/>
<rect x="31.2422" y="26.5742" width="6" height="6" transform="rotate(45 31.2422 26.5742)" fill="white"/>
</svg>
