<svg width="49" height="59" viewBox="0 0 49 59" fill="none" xmlns="http://www.w3.org/2000/svg">
<path fill-rule="evenodd" clip-rule="evenodd" d="M0.5 11.6957C0.5 5.73559 5.27276 0.90625 11.163 0.90625H37.837C43.7272 0.90625 48.5 5.73559 48.5 11.6957V33.7829C48.5 36.923 47.1543 39.7353 45.0581 41.7031L30.5674 56.3655C27.2195 59.7532 21.7805 59.7532 18.4326 56.3655L3.9433 41.7045C1.82652 39.7331 0.5 36.9188 0.5 33.7829V11.6957Z" fill="black"/>
<path fill-rule="evenodd" clip-rule="evenodd" d="M0.5 11.6957C0.5 5.73559 5.27276 0.90625 11.163 0.90625H37.837C43.7272 0.90625 48.5 5.73559 48.5 11.6957V33.7829C48.5 36.923 47.1543 39.7353 45.0581 41.7031L30.5674 56.3655C27.2195 59.7532 21.7805 59.7532 18.4326 56.3655L3.9433 41.7045C1.82652 39.7331 0.5 36.9188 0.5 33.7829V11.6957Z" fill="black" fill-opacity="0.2"/>
<path fill-rule="evenodd" clip-rule="evenodd" d="M0.5 11.6957C0.5 5.73559 5.27276 0.90625 11.163 0.90625H37.837C43.7272 0.90625 48.5 5.73559 48.5 11.6957V33.7829C48.5 36.923 47.1543 39.7353 45.0581 41.7031L30.5674 56.3655C27.2195 59.7532 21.7805 59.7532 18.4326 56.3655L3.9433 41.7045C1.82652 39.7331 0.5 36.9188 0.5 33.7829V11.6957Z" fill="black" fill-opacity="0.2"/>
<path fill-rule="evenodd" clip-rule="evenodd" d="M0.5 11.6957C0.5 5.73559 5.27276 0.90625 11.163 0.90625H37.837C43.7272 0.90625 48.5 5.73559 48.5 11.6957V33.7829C48.5 36.923 47.1543 39.7353 45.0581 41.7031L30.5674 56.3655C27.2195 59.7532 21.7805 59.7532 18.4326 56.3655L3.9433 41.7045C1.82652 39.7331 0.5 36.9188 0.5 33.7829V11.6957Z" fill="black" fill-opacity="0.2"/>
<path fill-rule="evenodd" clip-rule="evenodd" d="M0.5 11.6957C0.5 5.73559 5.27276 0.90625 11.163 0.90625H37.837C43.7272 0.90625 48.5 5.73559 48.5 11.6957V33.7829C48.5 36.923 47.1543 39.7353 45.0581 41.7031L30.5674 56.3655C27.2195 59.7532 21.7805 59.7532 18.4326 56.3655L3.9433 41.7045C1.82652 39.7331 0.5 36.9188 0.5 33.7829V11.6957Z" fill="black" fill-opacity="0.2"/>
<path fill-rule="evenodd" clip-rule="evenodd" d="M0.5 11.6957C0.5 5.73559 5.27276 0.90625 11.163 0.90625H37.837C43.7272 0.90625 48.5 5.73559 48.5 11.6957V33.7829C48.5 36.923 47.1543 39.7353 45.0581 41.7031L30.5674 56.3655C27.2195 59.7532 21.7805 59.7532 18.4326 56.3655L3.9433 41.7045C1.82652 39.7331 0.5 36.9188 0.5 33.7829V11.6957Z" fill="black" fill-opacity="0.2"/>
<path fill-rule="evenodd" clip-rule="evenodd" d="M0.5 11.6957C0.5 5.73559 5.27276 0.90625 11.163 0.90625H37.837C43.7272 0.90625 48.5 5.73559 48.5 11.6957V33.7829C48.5 36.923 47.1543 39.7353 45.0581 41.7031L30.5674 56.3655C27.2195 59.7532 21.7805 59.7532 18.4326 56.3655L3.9433 41.7045C1.82652 39.7331 0.5 36.9188 0.5 33.7829V11.6957Z" fill="black" fill-opacity="0.2"/>
<path fill-rule="evenodd" clip-rule="evenodd" d="M0.5 11.6957C0.5 5.73559 5.27276 0.90625 11.163 0.90625H37.837C43.7272 0.90625 48.5 5.73559 48.5 11.6957V33.7829C48.5 36.923 47.1543 39.7353 45.0581 41.7031L30.5674 56.3655C27.2195 59.7532 21.7805 59.7532 18.4326 56.3655L3.9433 41.7045C1.82652 39.7331 0.5 36.9188 0.5 33.7829V11.6957Z" fill="black" fill-opacity="0.2"/>
<path d="M15.8485 12.9062H23.7136C23.7136 12.9062 30.2136 27.1348 30.2031 27.3764C30.2031 27.5864 30.0771 27.7859 29.8881 27.9224C29.6676 28.0694 29.2685 28.0694 28.4705 28.0694H19.3978L22.9996 38.9063L12.1942 25.5597C11.7322 24.9717 11.4907 24.6777 11.5012 24.4256C11.5012 24.2156 11.6272 24.0161 11.8162 23.8796C12.0367 23.7326 12.4357 23.7326 13.2338 23.7326H21.5609L15.8485 12.9062Z" stroke="white" stroke-width="2.2" stroke-linecap="square" stroke-linejoin="round"/>
<path d="M34.0119 25.7812H36.1016" stroke="white" stroke-width="2.2" stroke-linecap="square" stroke-linejoin="round"/>
<path d="M26.3222 31.9883H33.0742" stroke="white" stroke-width="2.2" stroke-linecap="square" stroke-linejoin="round"/>
<path d="M30.6537 37.4766H35.6836" stroke="white" stroke-width="2.2" stroke-linecap="square" stroke-linejoin="round"/>
</svg>
