<svg width="48" height="58" viewBox="0 0 48 58" fill="none" xmlns="http://www.w3.org/2000/svg">
<path fill-rule="evenodd" clip-rule="evenodd" d="M0 10.7894C0 4.82934 4.77276 0 10.663 0H37.337C43.2272 0 48 4.82934 48 10.7894V32.8767C48 36.0167 46.6543 38.829 44.5581 40.7969L30.0674 55.4593C26.7195 58.8469 21.2805 58.8469 17.9326 55.4593L3.4433 40.7983C1.32652 38.8268 0 36.0125 0 32.8767V10.7894Z" fill="black"/>
<path fill-rule="evenodd" clip-rule="evenodd" d="M0 10.7894C0 4.82934 4.77276 0 10.663 0H37.337C43.2272 0 48 4.82934 48 10.7894V32.8767C48 36.0167 46.6543 38.829 44.5581 40.7969L30.0674 55.4593C26.7195 58.8469 21.2805 58.8469 17.9326 55.4593L3.4433 40.7983C1.32652 38.8268 0 36.0125 0 32.8767V10.7894Z" fill="black" fill-opacity="0.2"/>
<path fill-rule="evenodd" clip-rule="evenodd" d="M0 10.7894C0 4.82934 4.77276 0 10.663 0H37.337C43.2272 0 48 4.82934 48 10.7894V32.8767C48 36.0167 46.6543 38.829 44.5581 40.7969L30.0674 55.4593C26.7195 58.8469 21.2805 58.8469 17.9326 55.4593L3.4433 40.7983C1.32652 38.8268 0 36.0125 0 32.8767V10.7894Z" fill="black" fill-opacity="0.2"/>
<path fill-rule="evenodd" clip-rule="evenodd" d="M0 10.7894C0 4.82934 4.77276 0 10.663 0H37.337C43.2272 0 48 4.82934 48 10.7894V32.8767C48 36.0167 46.6543 38.829 44.5581 40.7969L30.0674 55.4593C26.7195 58.8469 21.2805 58.8469 17.9326 55.4593L3.4433 40.7983C1.32652 38.8268 0 36.0125 0 32.8767V10.7894Z" fill="black" fill-opacity="0.2"/>
<path fill-rule="evenodd" clip-rule="evenodd" d="M0 10.7894C0 4.82934 4.77276 0 10.663 0H37.337C43.2272 0 48 4.82934 48 10.7894V32.8767C48 36.0167 46.6543 38.829 44.5581 40.7969L30.0674 55.4593C26.7195 58.8469 21.2805 58.8469 17.9326 55.4593L3.4433 40.7983C1.32652 38.8268 0 36.0125 0 32.8767V10.7894Z" fill="black" fill-opacity="0.2"/>
<path fill-rule="evenodd" clip-rule="evenodd" d="M0 10.7894C0 4.82934 4.77276 0 10.663 0H37.337C43.2272 0 48 4.82934 48 10.7894V32.8767C48 36.0167 46.6543 38.829 44.5581 40.7969L30.0674 55.4593C26.7195 58.8469 21.2805 58.8469 17.9326 55.4593L3.4433 40.7983C1.32652 38.8268 0 36.0125 0 32.8767V10.7894Z" fill="black" fill-opacity="0.2"/>
<path fill-rule="evenodd" clip-rule="evenodd" d="M0 10.7894C0 4.82934 4.77276 0 10.663 0H37.337C43.2272 0 48 4.82934 48 10.7894V32.8767C48 36.0167 46.6543 38.829 44.5581 40.7969L30.0674 55.4593C26.7195 58.8469 21.2805 58.8469 17.9326 55.4593L3.4433 40.7983C1.32652 38.8268 0 36.0125 0 32.8767V10.7894Z" fill="black" fill-opacity="0.2"/>
<path fill-rule="evenodd" clip-rule="evenodd" d="M0 10.7894C0 4.82934 4.77276 0 10.663 0H37.337C43.2272 0 48 4.82934 48 10.7894V32.8767C48 36.0167 46.6543 38.829 44.5581 40.7969L30.0674 55.4593C26.7195 58.8469 21.2805 58.8469 17.9326 55.4593L3.4433 40.7983C1.32652 38.8268 0 36.0125 0 32.8767V10.7894Z" fill="black" fill-opacity="0.2"/>
<g clip-path="url(#clip0_3017_22946)">
<path d="M33 36H15C14.7348 36 14.4804 35.8946 14.2929 35.7071C14.1054 35.5196 14 35.2652 14 35V13C14 12.7348 14.1054 12.4804 14.2929 12.2929C14.4804 12.1054 14.7348 12 15 12H27L34 19V35C34 35.2652 33.8946 35.5196 33.7071 35.7071C33.5196 35.8946 33.2652 36 33 36Z" stroke="white" stroke-width="2" stroke-linejoin="round"/>
<path d="M27 12V19H34" stroke="white" stroke-width="2" stroke-linejoin="round"/>
<path d="M21 24L27 30" stroke="white" stroke-width="2" stroke-linecap="round" stroke-linejoin="round"/>
<path d="M27 24L21 30" stroke="white" stroke-width="2" stroke-linejoin="round"/>
</g>
<defs>
<clipPath id="clip0_3017_22946">
<rect width="32" height="32" fill="white" transform="translate(8 8)"/>
</clipPath>
</defs>
</svg>
