<svg width="48" height="58" viewBox="0 0 48 58" fill="none" xmlns="http://www.w3.org/2000/svg">
<path fill-rule="evenodd" clip-rule="evenodd" d="M0 10.7894C0 4.82934 4.77276 0 10.663 0H37.337C43.2272 0 48 4.82934 48 10.7894V32.8767C48 36.0167 46.6543 38.829 44.5581 40.7969L30.0674 55.4593C26.7195 58.8469 21.2805 58.8469 17.9326 55.4593L3.4433 40.7983C1.32652 38.8268 0 36.0125 0 32.8767V10.7894Z" fill="black"/>
<path fill-rule="evenodd" clip-rule="evenodd" d="M0 10.7894C0 4.82934 4.77276 0 10.663 0H37.337C43.2272 0 48 4.82934 48 10.7894V32.8767C48 36.0167 46.6543 38.829 44.5581 40.7969L30.0674 55.4593C26.7195 58.8469 21.2805 58.8469 17.9326 55.4593L3.4433 40.7983C1.32652 38.8268 0 36.0125 0 32.8767V10.7894Z" fill="black" fill-opacity="0.2"/>
<path fill-rule="evenodd" clip-rule="evenodd" d="M0 10.7894C0 4.82934 4.77276 0 10.663 0H37.337C43.2272 0 48 4.82934 48 10.7894V32.8767C48 36.0167 46.6543 38.829 44.5581 40.7969L30.0674 55.4593C26.7195 58.8469 21.2805 58.8469 17.9326 55.4593L3.4433 40.7983C1.32652 38.8268 0 36.0125 0 32.8767V10.7894Z" fill="black" fill-opacity="0.2"/>
<path fill-rule="evenodd" clip-rule="evenodd" d="M0 10.7894C0 4.82934 4.77276 0 10.663 0H37.337C43.2272 0 48 4.82934 48 10.7894V32.8767C48 36.0167 46.6543 38.829 44.5581 40.7969L30.0674 55.4593C26.7195 58.8469 21.2805 58.8469 17.9326 55.4593L3.4433 40.7983C1.32652 38.8268 0 36.0125 0 32.8767V10.7894Z" fill="black" fill-opacity="0.2"/>
<path fill-rule="evenodd" clip-rule="evenodd" d="M0 10.7894C0 4.82934 4.77276 0 10.663 0H37.337C43.2272 0 48 4.82934 48 10.7894V32.8767C48 36.0167 46.6543 38.829 44.5581 40.7969L30.0674 55.4593C26.7195 58.8469 21.2805 58.8469 17.9326 55.4593L3.4433 40.7983C1.32652 38.8268 0 36.0125 0 32.8767V10.7894Z" fill="black" fill-opacity="0.2"/>
<path fill-rule="evenodd" clip-rule="evenodd" d="M0 10.7894C0 4.82934 4.77276 0 10.663 0H37.337C43.2272 0 48 4.82934 48 10.7894V32.8767C48 36.0167 46.6543 38.829 44.5581 40.7969L30.0674 55.4593C26.7195 58.8469 21.2805 58.8469 17.9326 55.4593L3.4433 40.7983C1.32652 38.8268 0 36.0125 0 32.8767V10.7894Z" fill="black" fill-opacity="0.2"/>
<path fill-rule="evenodd" clip-rule="evenodd" d="M0 10.7894C0 4.82934 4.77276 0 10.663 0H37.337C43.2272 0 48 4.82934 48 10.7894V32.8767C48 36.0167 46.6543 38.829 44.5581 40.7969L30.0674 55.4593C26.7195 58.8469 21.2805 58.8469 17.9326 55.4593L3.4433 40.7983C1.32652 38.8268 0 36.0125 0 32.8767V10.7894Z" fill="black" fill-opacity="0.2"/>
<path fill-rule="evenodd" clip-rule="evenodd" d="M0 10.7894C0 4.82934 4.77276 0 10.663 0H37.337C43.2272 0 48 4.82934 48 10.7894V32.8767C48 36.0167 46.6543 38.829 44.5581 40.7969L30.0674 55.4593C26.7195 58.8469 21.2805 58.8469 17.9326 55.4593L3.4433 40.7983C1.32652 38.8268 0 36.0125 0 32.8767V10.7894Z" fill="black" fill-opacity="0.2"/>
<path d="M24 27C26.7614 27 29 24.7614 29 22C29 19.2386 26.7614 17 24 17C21.2386 17 19 19.2386 19 22C19 24.7614 21.2386 27 24 27Z" stroke="white" stroke-width="2" stroke-linecap="round" stroke-linejoin="round"/>
<path d="M15.9766 31.9219C16.7289 30.4399 17.877 29.1952 19.2935 28.3258C20.71 27.4563 22.3395 26.9961 24.0016 26.9961C25.6636 26.9961 27.2932 27.4563 28.7096 28.3258C30.1261 29.1952 31.2742 30.4399 32.0266 31.9219" stroke="white" stroke-width="2" stroke-linecap="round" stroke-linejoin="round"/>
<path d="M35.8333 21.0001C36.2551 23.5067 35.8694 26.0826 34.7319 28.3558C33.5943 30.629 31.7637 32.4818 29.5044 33.6468C27.2451 34.8117 24.6741 35.2285 22.1625 34.8369C19.6509 34.4453 17.3288 33.2656 15.5313 31.4682C13.7339 29.6708 12.5542 27.3486 12.1627 24.8371C11.7711 22.3255 12.1879 19.7544 13.3528 17.4951C14.5177 15.2358 16.3706 13.4053 18.6437 12.2677C20.9169 11.1301 23.4928 10.7444 25.9995 11.1663" stroke="white" stroke-width="2" stroke-linecap="round" stroke-linejoin="round"/>
<path d="M31 14L33 16L37 12" stroke="white" stroke-width="2" stroke-linecap="round" stroke-linejoin="round"/>
</svg>
