<svg width="20" height="20" viewBox="0 0 20 20" fill="none" xmlns="http://www.w3.org/2000/svg">
<path d="M3 9V11H15V9H3Z" fill="black"/>
<path d="M3 9V11H15V9H3Z" fill="black" fill-opacity="0.2"/>
<path d="M3 9V11H15V9H3Z" fill="black" fill-opacity="0.2"/>
<path d="M3 9V11H15V9H3Z" fill="black" fill-opacity="0.2"/>
<path d="M3 9V11H15V9H3Z" fill="black" fill-opacity="0.2"/>
<path d="M3 9V11H15V9H3Z" fill="black" fill-opacity="0.2"/>
<path d="M3 9V11H15V9H3Z" fill="black" fill-opacity="0.2"/>
<path d="M3 9V11H15V9H3Z" fill="black" fill-opacity="0.2"/>
<path d="M10 16L15.9929 10.007C15.9968 10.0031 15.9968 9.99673 15.9929 9.99282L10 4" stroke="black" stroke-width="2"/>
<path d="M10 16L15.9929 10.007C15.9968 10.0031 15.9968 9.99673 15.9929 9.99282L10 4" stroke="black" stroke-opacity="0.2" stroke-width="2"/>
<path d="M10 16L15.9929 10.007C15.9968 10.0031 15.9968 9.99673 15.9929 9.99282L10 4" stroke="black" stroke-opacity="0.2" stroke-width="2"/>
<path d="M10 16L15.9929 10.007C15.9968 10.0031 15.9968 9.99673 15.9929 9.99282L10 4" stroke="black" stroke-opacity="0.2" stroke-width="2"/>
<path d="M10 16L15.9929 10.007C15.9968 10.0031 15.9968 9.99673 15.9929 9.99282L10 4" stroke="black" stroke-opacity="0.2" stroke-width="2"/>
<path d="M10 16L15.9929 10.007C15.9968 10.0031 15.9968 9.99673 15.9929 9.99282L10 4" stroke="black" stroke-opacity="0.2" stroke-width="2"/>
<path d="M10 16L15.9929 10.007C15.9968 10.0031 15.9968 9.99673 15.9929 9.99282L10 4" stroke="black" stroke-opacity="0.2" stroke-width="2"/>
<path d="M10 16L15.9929 10.007C15.9968 10.0031 15.9968 9.99673 15.9929 9.99282L10 4" stroke="black" stroke-opacity="0.2" stroke-width="2"/>
</svg>
