<svg width="50" height="51" viewBox="0 0 50 51" fill="none" xmlns="http://www.w3.org/2000/svg">
<rect y="0.0546875" width="50" height="50" rx="25" fill="#FFF5E0"/>
<g clip-path="url(#clip0_1663_29340)">
<path d="M20.875 28.0547C23.5674 28.0547 25.75 25.8721 25.75 23.1797C25.75 20.4873 23.5674 18.3047 20.875 18.3047C18.1826 18.3047 16 20.4873 16 23.1797C16 25.8721 18.1826 28.0547 20.875 28.0547Z" stroke="black" stroke-width="2" stroke-linecap="round" stroke-linejoin="round"/>
<path d="M13.959 31.8027C14.7081 30.6509 15.7331 29.7044 16.9409 29.0492C18.1486 28.394 19.5009 28.0508 20.8749 28.0508C22.249 28.0508 23.6012 28.394 24.809 29.0492C26.0167 29.7044 27.0417 30.6509 27.7909 31.8027" stroke="black" stroke-width="2" stroke-linecap="round" stroke-linejoin="round"/>
<path d="M29.125 28.0547C30.499 28.0539 31.8513 28.3965 33.0592 29.0514C34.267 29.7064 35.292 30.6528 36.0409 31.8047" stroke="black" stroke-width="2" stroke-linecap="round" stroke-linejoin="round"/>
<path d="M27.3145 18.6516C27.9813 18.3856 28.6987 18.2702 29.4153 18.3136C30.1319 18.357 30.8301 18.5582 31.46 18.9027C32.0899 19.2473 32.6359 19.7267 33.059 20.3067C33.4821 20.8868 33.7718 21.5531 33.9076 22.2581C34.0433 22.9631 34.0216 23.6893 33.8441 24.385C33.6666 25.0806 33.3376 25.7285 32.8807 26.2823C32.4238 26.8361 31.8502 27.2821 31.2009 27.5885C30.5516 27.8949 29.8427 28.0541 29.1248 28.0547" stroke="black" stroke-width="2" stroke-linecap="round" stroke-linejoin="round"/>
</g>
<defs>
<clipPath id="clip0_1663_29340">
<rect width="24" height="24" fill="white" transform="translate(13 13.0547)"/>
</clipPath>
</defs>
</svg>
