<svg width="309" height="48" viewBox="0 0 309 48" fill="none" xmlns="http://www.w3.org/2000/svg">
<path d="M286.909 35.5654C285.832 36.3919 284.305 36.7927 282.276 36.7927C279.796 36.7927 277.817 36.0914 276.339 34.6637C274.862 33.236 274.06 31.3073 273.91 28.9028H293.196V26.1226C293.196 24.1188 292.77 22.2653 291.919 20.5621C291.067 18.8839 289.79 17.5314 288.062 16.5044C286.333 15.4775 284.254 14.9766 281.8 14.9766C279.345 14.9766 277.166 15.5026 275.313 16.5295C273.459 17.5564 272.031 19.0342 271.004 20.9628C269.978 22.8915 269.477 25.1457 269.477 27.7506C269.477 30.3555 270.003 32.6098 271.055 34.5384C272.106 36.4671 273.609 37.9449 275.538 38.9718C277.467 39.9987 279.721 40.5247 282.251 40.5247C285.632 40.5247 288.212 39.6981 290.04 38.045C291.844 36.3919 293.046 34.4382 293.647 32.1589H289.239C288.738 33.6117 287.961 34.7639 286.884 35.5654H286.909ZM276.49 20.4369C277.867 19.2847 279.646 18.6836 281.8 18.6836C284.129 18.6836 285.832 19.2847 286.909 20.4619C287.986 21.6642 288.537 23.2922 288.537 25.4212H273.935C274.236 23.2421 275.087 21.589 276.465 20.4369H276.49Z" fill="black"/>
<path d="M79.0437 33.6363C77.1652 35.4397 74.5102 36.3414 71.1038 36.3414C68.6492 36.3414 66.4951 35.7903 64.6416 34.6883C62.7881 33.5862 61.3354 32.0333 60.3084 30.0295C59.2815 28.0257 58.7806 25.6963 58.7806 23.1164C58.7806 20.5366 59.2815 18.2072 60.3084 16.2034C61.3354 14.1996 62.7631 12.6217 64.6416 11.5446C66.4951 10.4426 68.6492 9.89152 71.1038 9.89152C77.591 9.89152 81.0726 13.0725 81.5485 19.4095H86.2072C86.1071 16.9047 85.5059 14.6004 84.4038 12.5215C83.2767 10.4426 81.6236 8.78944 79.4445 7.53708C77.2403 6.30977 74.5603 5.68359 71.3543 5.68359C67.9228 5.68359 64.8921 6.40996 62.2872 7.83765C59.6823 9.29039 57.6785 11.3192 56.2758 13.9492C54.8732 16.5791 54.1719 19.6349 54.1719 23.0914C54.1719 26.5479 54.8732 29.6037 56.2758 32.2336C57.6785 34.8636 59.6823 36.8924 62.2872 38.3451C64.8921 39.7728 67.8977 40.4992 71.3543 40.4992C74.5853 40.4992 77.3405 39.873 79.6699 38.5956C81.9993 37.3182 83.7526 35.5899 84.9549 33.4108C86.1572 31.2317 86.8084 28.7771 86.9086 26.0971H82.2748C82.0244 29.3282 80.9473 31.8329 79.0688 33.6363H79.0437Z" fill="black"/>
<path d="M133.745 16.3791C131.941 15.4273 130.038 14.9514 127.984 14.9514C124.427 14.9514 121.747 16.0785 119.994 18.3328C119.844 18.5582 119.668 18.6584 119.493 18.6584C119.267 18.6584 119.167 18.5582 119.167 18.3328V8.41406H114.984V40.4995H118.942V36.4168C118.942 36.4168 119.117 36.3166 119.217 36.3166C119.393 36.3166 119.568 36.4419 119.718 36.6923C121.572 39.2221 124.327 40.4995 127.984 40.4995C130.038 40.4995 131.941 40.0236 133.745 39.0718C135.548 38.12 137.001 36.6923 138.128 34.7637C139.255 32.8351 139.831 30.4806 139.831 27.7004C139.831 24.9202 139.255 22.5657 138.128 20.6371C137.001 18.7085 135.523 17.2808 133.745 16.329V16.3791ZM133.344 34.413C131.816 36.0161 129.787 36.8176 127.283 36.8176C124.778 36.8176 122.749 36.0161 121.221 34.413C119.693 32.81 118.917 30.6059 118.917 27.7505C118.917 24.8951 119.693 22.6659 121.221 21.0879C122.749 19.4849 124.778 18.6834 127.283 18.6834C129.787 18.6834 131.816 19.4849 133.344 21.0879C134.872 22.691 135.648 24.8951 135.648 27.7505C135.648 30.6059 134.872 32.8351 133.344 34.413Z" fill="black"/>
<path d="M158.644 35.5654C157.567 36.3919 156.039 36.7927 154.01 36.7927C151.53 36.7927 149.552 36.0914 148.074 34.6637C146.596 33.236 145.795 31.3073 145.644 28.9028H164.931V26.1226C164.931 24.1188 164.505 22.2653 163.653 20.5621C162.802 18.8839 161.524 17.5314 159.796 16.5044C158.068 15.4775 155.989 14.9766 153.534 14.9766C151.08 14.9766 148.9 15.5026 147.047 16.5295C145.193 17.5564 143.766 19.0342 142.739 20.9628C141.712 22.8915 141.211 25.1457 141.211 27.7506C141.211 30.3555 141.737 32.6098 142.789 34.5384C143.841 36.4671 145.344 37.9449 147.272 38.9718C149.201 39.9987 151.455 40.5247 153.985 40.5247C157.366 40.5247 159.946 39.6981 161.775 38.045C163.578 36.3919 164.78 34.4382 165.381 32.1589H160.973C160.472 33.6117 159.696 34.7639 158.619 35.5654H158.644ZM148.224 20.4369C149.602 19.2847 151.38 18.6836 153.534 18.6836C155.864 18.6836 157.567 19.2847 158.644 20.4619C159.721 21.6642 160.272 23.2922 160.272 25.4212H145.669C145.97 23.2421 146.822 21.589 148.199 20.4369H148.224Z" fill="black"/>
<path d="M211.856 33.6363C209.978 35.4397 207.323 36.3414 203.916 36.3414C201.462 36.3414 199.308 35.7903 197.454 34.6883C195.601 33.5862 194.148 32.0333 193.121 30.0295C192.094 28.0257 191.593 25.6963 191.593 23.1164C191.593 20.5366 192.094 18.2072 193.121 16.2034C194.148 14.1996 195.576 12.6217 197.454 11.5446C199.308 10.4426 201.462 9.89152 203.916 9.89152C210.403 9.89152 213.885 13.0725 214.361 19.4095H219.02C218.92 16.9047 218.318 14.6004 217.216 12.5215C216.089 10.4426 214.436 8.78944 212.257 7.53708C210.053 6.30977 207.373 5.68359 204.167 5.68359C200.735 5.68359 197.705 6.40996 195.1 7.83765C192.495 9.29039 190.491 11.3192 189.088 13.9492C187.686 16.5791 186.984 19.6349 186.984 23.0914C186.984 26.5479 187.686 29.6037 189.088 32.2336C190.491 34.8636 192.495 36.8924 195.1 38.3451C197.705 39.7728 200.71 40.4992 204.167 40.4992C207.398 40.4992 210.153 39.873 212.482 38.5956C214.812 37.3182 216.565 35.5899 217.767 33.4108C218.97 31.2317 219.621 28.7771 219.721 26.0971H215.087C214.837 29.3282 213.76 31.8329 211.881 33.6363H211.856Z" fill="black"/>
<path d="M239.811 16.4544C237.907 15.4525 235.778 14.9766 233.424 14.9766C231.069 14.9766 228.94 15.4775 227.037 16.4544C225.133 17.4562 223.63 18.909 222.528 20.8126C221.426 22.7412 220.875 25.0455 220.875 27.7256C220.875 30.4056 221.426 32.735 222.528 34.6386C223.63 36.5672 225.133 38.02 227.037 38.9968C228.94 39.9987 231.069 40.4746 233.424 40.4746C235.778 40.4746 237.907 39.9737 239.811 38.9968C241.714 37.9949 243.217 36.5422 244.319 34.6386C245.421 32.71 245.972 30.4056 245.972 27.7256C245.972 25.0455 245.421 22.7162 244.319 20.8126C243.217 18.8839 241.714 17.4312 239.811 16.4544ZM239.485 34.4132C237.957 36.0162 235.928 36.8177 233.424 36.8177C230.919 36.8177 228.89 36.0162 227.362 34.4132C225.834 32.8102 225.058 30.606 225.058 27.7506C225.058 24.8952 225.834 22.6661 227.362 21.0881C228.89 19.4851 230.919 18.6836 233.424 18.6836C235.928 18.6836 237.957 19.4851 239.485 21.0881C241.013 22.6911 241.789 24.8952 241.789 27.7506C241.789 30.606 241.013 32.8352 239.485 34.4132Z" fill="black"/>
<path d="M258.048 35.9656C257.998 36.1159 257.922 36.2161 257.872 36.2662C257.822 36.3163 257.722 36.3413 257.597 36.3413C257.472 36.3413 257.371 36.3413 257.321 36.2662C257.271 36.2161 257.196 36.1159 257.146 35.9656L250.233 15.6523H246V16.5791L254.09 39.8229H261.154L269.244 16.5791V15.6523H265.011L258.098 35.9656H258.048Z" fill="black"/>
<path d="M107.369 27.5018C107.369 30.3572 106.717 32.4862 105.44 33.9389C104.163 35.3666 102.309 36.093 99.9295 36.093C97.8256 36.093 96.2225 35.5169 95.0954 34.3647C93.9933 33.2125 93.4173 31.5344 93.4173 29.3553V14.9531H89.2344V30.0566C89.2344 33.1625 90.111 35.567 91.8393 37.2702C93.5675 38.9734 95.947 39.825 99.0028 39.825C102.284 39.825 104.789 38.7229 106.542 36.5188C106.642 36.4186 106.717 36.3434 106.792 36.2683C106.868 36.1932 106.943 36.1431 107.043 36.1431C107.268 36.1431 107.369 36.2433 107.369 36.4687V43.006C107.369 43.2314 107.318 43.3817 107.193 43.5069C107.068 43.6322 106.893 43.6823 106.692 43.6823H97.1994V47.3893H103.687C106.342 47.3893 108.32 46.738 109.623 45.4356C110.925 44.1331 111.576 42.1544 111.576 39.4994V14.9531H107.394V27.5018H107.369Z" fill="black"/>
<path d="M170.172 17.6083C168.87 18.9108 168.219 20.8895 168.219 23.5445V39.8001H172.402V20.0629C172.402 19.8375 172.452 19.6872 172.577 19.562C172.702 19.4368 172.878 19.3867 173.078 19.3867H181.118V15.6797H176.084C173.429 15.6797 171.45 16.3309 170.147 17.6334L170.172 17.6083Z" fill="black"/>
<path d="M303.984 15.6523C301.329 15.6523 299.35 16.3036 298.047 17.606C296.745 18.9085 296.094 20.8872 296.094 23.5422V39.7978H300.277V20.0606C300.277 19.8352 300.327 19.6849 300.452 19.5597C300.577 19.4345 300.753 19.3844 300.953 19.3844H308.993V15.6774H303.959L303.984 15.6523Z" fill="black"/>
<path d="M23.7197 0C10.62 0 0 10.62 0 23.7197C0 36.8194 10.62 47.4394 23.7197 47.4394V0Z" fill="url(#paint0_linear_1663_26883)" style="mix-blend-mode:multiply"/>
<path d="M43.9072 0C30.8075 0 20.1875 10.62 20.1875 23.7197C20.1875 36.8194 30.8075 47.4394 43.9072 47.4394V0Z" fill="url(#paint1_linear_1663_26883)" style="mix-blend-mode:multiply"/>
<defs>
<linearGradient id="paint0_linear_1663_26883" x1="0" y1="23.6946" x2="23.7197" y2="23.6946" gradientUnits="userSpaceOnUse">
<stop/>
<stop offset="1" stop-color="white"/>
</linearGradient>
<linearGradient id="paint1_linear_1663_26883" x1="20.1875" y1="-172.951" x2="43.9072" y2="-172.951" gradientUnits="userSpaceOnUse">
<stop/>
<stop offset="1" stop-color="white"/>
</linearGradient>
</defs>
</svg>
