<svg width="139" height="28" viewBox="0 0 139 28" fill="none" xmlns="http://www.w3.org/2000/svg">
<path d="M5.72838 14.282V13.8283L13.6697 5.88265L21.8448 14.0574L21.3045 14.5985L13.5262 6.81937L12.9804 7.36664L20.759 15.1449L20.2155 15.6887L12.4357 7.90984L11.89 8.45681L19.668 16.2354L19.1242 16.7786L11.3465 9.00001L10.7998 9.5467L18.5793 17.3244L18.0352 17.8685L10.2563 10.0899L9.70996 10.6369L17.4883 18.4143L16.9448 18.9581L9.16737 11.1798L8.61953 11.7256L16.3996 19.5045L16.3496 19.5524L15.8538 20.0465L8.07694 12.27L7.52969 12.8158L15.308 20.5946L15.0735 20.8289L15.1511 20.751L14.7648 21.1378L6.98651 13.3596L6.44013 13.9059L14.2182 21.6845L13.6747 22.2263L5.72838 14.282ZM12.2285 23.1371L4.55106 15.462V12.6536L12.2236 4.98081L14.979 4.97936L22.9497 12.9532L22.63 13.2729L14.8517 5.48913H13.2823L5.50722 13.2747L5.51042 14.8345L13.2928 22.6259L14.85 22.6227L22.6295 14.8415L22.9451 15.1563L14.97 23.1377L12.2285 23.1371ZM3.37518 16.6426L3.37111 11.4756L11.0393 3.79821L16.159 3.80054L24.1303 11.7747L23.8068 12.0964V12.0909L16.0299 4.31264L16.0171 4.31613L12.1068 4.3138L4.33105 12.097V16.0192L4.33425 16.016V16.0206L12.1097 23.7957L16.0331 23.7983L16.0305 23.7963L23.8106 16.0241L24.1276 16.3391L16.1511 24.3157H11.046L3.37518 16.6426ZM9.86225 25.4913L2.19321 17.8258V10.2925L9.87155 2.61503H17.3331L25.3105 10.5947L24.9859 10.9205L17.2087 3.13614H10.9265L3.15053 10.9205L3.15576 17.1983L10.9312 24.9789L17.2087 24.9812L24.985 17.2012V17.1965L25.2997 17.5127L17.3331 25.4919L9.86225 25.4913ZM1.01646 18.9985L1.01501 9.11859L8.68754 1.44116H18.5107L26.4893 9.41504L26.1664 9.73183L18.3878 1.9518H9.7492L1.97175 9.7359V18.378L9.75414 26.1545L18.3857 26.1504L26.1681 18.3832L26.4843 18.6979L18.5087 26.673H8.68144L1.01646 18.9985ZM19.5581 0.777344L8.57245 0.778797L0.792969 8.55621V19.5507L8.57623 27.3316H19.5634L27.3472 19.5524V8.55534L19.5581 0.777344Z" fill="black"/>
<path d="M85.381 15.2794H82.9622C82.3054 15.2794 81.8182 15.1585 81.5069 14.9009C81.1884 14.6493 81.0338 14.3696 81.0338 14.0672V13.084C81.0338 12.481 81.2351 12.0722 81.6378 11.8577C82.0437 11.6421 83.0109 11.5353 84.5491 11.5353C85.0532 11.5353 87.2703 11.6874 91.2004 11.9916V8.46753C88.0724 8.24138 85.9117 8.12891 84.6985 8.12891C81.7993 8.12891 79.5578 8.44347 77.9739 9.07261C76.3853 9.70228 75.5919 10.8513 75.5938 12.5197V14.7481C75.5938 16.2396 76.1241 17.3659 77.1992 18.1383C78.2743 18.9107 79.7634 19.2908 81.6773 19.2908H84.0599C85.1414 19.2908 85.8489 19.4368 86.1767 19.7266C86.5045 20.0164 86.6667 20.4522 86.6667 21.0311V22.1667C86.6667 22.7988 86.3701 23.221 85.7768 23.4333C85.1836 23.6456 84.346 23.7531 83.2642 23.7558C81.9026 23.7558 79.471 23.4915 75.9694 22.9628V26.6312C78.7917 27.0097 81.1933 27.2 83.1921 27.2C84.225 27.2 85.1249 27.1661 85.89 27.1029C86.6982 27.0329 87.4999 26.9007 88.2879 26.7074C89.1219 26.5048 89.7965 26.2207 90.3117 25.8552C90.8287 25.4924 91.2596 24.9792 91.6002 24.3234C91.9409 23.6675 92.1088 22.8891 92.1088 21.978V19.6673C92.1088 16.7426 89.8662 15.2799 85.381 15.2794Z" fill="black"/>
<path d="M94.9277 2.26562H100.448V6.35122H94.9277V2.26562Z" fill="black"/>
<path d="M94.9277 8.50781H100.448V26.8235H94.9277V8.50781Z" fill="black"/>
<path d="M103.979 2.26562H109.499V26.824H103.979V2.26562Z" fill="black"/>
<path d="M113.035 8.50781H118.55V26.8235H113.035V8.50781Z" fill="black"/>
<path d="M113.035 2.26562H118.55V6.35122H113.035V2.26562Z" fill="black"/>
<path d="M133.273 22.1308C133.273 22.4565 133.222 22.723 133.125 22.9217C133.039 23.1044 132.916 23.2667 132.762 23.3978C132.623 23.5099 132.378 23.5941 132.025 23.6429C131.671 23.6917 131.345 23.7235 131.041 23.7405C130.742 23.7525 130.276 23.7574 129.644 23.7574C128.358 23.7574 127.558 23.6304 127.244 23.3764C126.928 23.1273 126.771 22.409 126.771 21.2214C126.771 20.012 126.921 19.2654 127.228 18.9861C127.528 18.7116 128.284 18.5717 129.492 18.5717H133.272L133.273 22.1308ZM136.828 9.35559C135.521 8.5413 133.177 8.1324 129.797 8.12891C127.229 8.12891 124.898 8.25441 122.805 8.50542V11.9904C125.526 11.6864 127.668 11.5342 129.23 11.5336C130.894 11.5336 131.982 11.7179 132.501 12.0819C133.021 12.4459 133.273 13.1901 133.273 14.2954V15.5451H127.075C124.933 15.5451 123.447 15.9674 122.617 16.8121C121.787 17.6567 121.371 19.1644 121.369 21.335C121.369 23.7332 121.777 25.3066 122.577 26.0656C123.382 26.8187 125.021 27.2016 127.49 27.2016C129.508 27.2016 130.894 27.0429 131.649 26.7255C132.405 26.4111 132.982 25.8867 133.387 25.1566V26.8179H138.793V14.2196C138.793 11.7985 138.133 10.1784 136.826 9.35559" fill="black"/>
<path d="M47.5763 10.594C47.5763 11.6508 47.3233 12.3629 46.8173 12.7306C46.3161 13.0926 45.3719 13.2744 43.9849 13.276H38.9173V6.46531H43.9849C45.2919 6.46531 46.2181 6.63529 46.7633 6.97526C47.2997 7.3175 47.5747 7.94274 47.5747 8.85096L47.5763 10.594ZM51.752 15.2077C52.8206 14.4015 53.3574 13.2518 53.3574 11.7655V7.45214C53.3574 5.56152 52.6147 4.22411 51.1294 3.43991C49.6441 2.65571 47.288 2.26428 44.061 2.26563H33.0234V26.824H38.9173V17.1745H41.6401L48.0655 26.824H54.8706L47.7627 16.7218C49.3533 16.5203 50.6784 16.0136 51.7491 15.2077" fill="black"/>
<path d="M67.9313 15.9998H61.3094V13.3497C61.3094 12.7703 61.5431 12.3228 62.0104 12.0073C62.4771 11.6896 63.3795 11.5336 64.7124 11.5336C65.9272 11.5336 66.7611 11.6896 67.2286 12.0073C67.6961 12.325 67.9297 12.7704 67.9297 13.3497L67.9313 15.9998ZM71.1027 9.56401C69.7132 8.60647 67.6098 8.1281 64.7925 8.12891C61.7894 8.12891 59.5377 8.6324 58.0224 9.641C56.5072 10.6496 55.7578 12.329 55.7578 14.68V21.2568C55.7578 25.2219 58.9955 27.2036 65.471 27.202C67.8832 27.206 70.2896 26.9643 72.653 26.4809V22.9636C70.3843 23.4923 68.3442 23.7567 66.5324 23.757C64.5129 23.757 63.1385 23.5228 62.4091 23.0543C61.6797 22.5859 61.3136 21.8367 61.3106 20.8066V19.1401H73.1849V14.6784C73.1849 12.227 72.4895 10.5262 71.1039 9.56441" fill="black"/>
</svg>
