<svg width="293" height="46" viewBox="0 0 293 46" fill="none" xmlns="http://www.w3.org/2000/svg">
<path d="M272.099 33.953C271.08 34.7352 269.634 35.1145 267.714 35.1145C265.367 35.1145 263.495 34.4508 262.096 33.0997C260.698 31.7486 259.939 29.9234 259.797 27.6479H278.049V25.0168C278.049 23.1205 277.646 21.3665 276.84 19.7546C276.034 18.1665 274.825 16.8865 273.19 15.9147C271.554 14.9428 269.587 14.4688 267.264 14.4688C264.941 14.4688 262.879 14.9665 261.124 15.9384C259.37 16.9102 258.019 18.3087 257.047 20.1339C256.076 21.959 255.602 24.0924 255.602 26.5575C255.602 29.0227 256.099 31.156 257.095 32.9811C258.09 34.8063 259.513 36.2048 261.338 37.1767C263.163 38.1485 265.296 38.6463 267.69 38.6463C270.89 38.6463 273.332 37.8641 275.062 36.2996C276.769 34.7352 277.906 32.8863 278.475 30.7293H274.304C273.83 32.1041 273.095 33.1945 272.075 33.953H272.099ZM262.239 19.6361C263.542 18.5457 265.225 17.9769 267.264 17.9769C269.468 17.9769 271.08 18.5458 272.099 19.6598C273.118 20.7976 273.64 22.3383 273.64 24.3531H259.821C260.105 22.2909 260.911 20.7265 262.215 19.6361H262.239Z" fill="white"/>
<path d="M74.8032 32.1249C73.0254 33.8316 70.5128 34.6849 67.2892 34.6849C64.9662 34.6849 62.9277 34.1634 61.1737 33.1205C59.4196 32.0775 58.0448 30.6079 57.073 28.7116C56.1011 26.8154 55.6271 24.6109 55.6271 22.1695C55.6271 19.728 56.1011 17.5236 57.073 15.6273C58.0448 13.731 59.3959 12.2377 61.1737 11.2185C62.9277 10.1755 64.9662 9.65406 67.2892 9.65406C73.4284 9.65406 76.7231 12.6644 77.1735 18.6614H81.5824C81.4875 16.291 80.9187 14.1103 79.8757 12.1429C78.809 10.1755 77.2446 8.6111 75.1824 7.42593C73.0965 6.26446 70.5602 5.67188 67.5262 5.67188C64.2788 5.67188 61.4107 6.35928 58.9455 7.71037C56.4804 9.08517 54.5841 11.0052 53.2567 13.494C51.9293 15.9829 51.2656 18.8747 51.2656 22.1458C51.2656 25.4168 51.9293 28.3087 53.2567 30.7975C54.5841 33.2864 56.4804 35.2064 58.9455 36.5812C61.4107 37.9323 64.2551 38.6197 67.5262 38.6197C70.5839 38.6197 73.1913 38.0271 75.3957 36.8182C77.6002 35.6093 79.2594 33.9738 80.3972 31.9116C81.5349 29.8494 82.1512 27.5265 82.246 24.9902H77.8609C77.6239 28.0479 76.6046 30.4183 74.8269 32.1249H74.8032Z" fill="white"/>
<path d="M126.574 15.7955C124.868 14.8948 123.066 14.4444 121.122 14.4444C117.757 14.4444 115.22 15.5111 113.561 17.6444C113.419 17.8577 113.253 17.9525 113.087 17.9525C112.874 17.9525 112.779 17.8577 112.779 17.6444V8.25781H108.82V38.6219H112.565V34.7583C112.565 34.7583 112.731 34.6635 112.826 34.6635C112.992 34.6635 113.158 34.782 113.3 35.019C115.054 37.413 117.662 38.6219 121.122 38.6219C123.066 38.6219 124.868 38.1716 126.574 37.2708C128.281 36.3701 129.656 35.019 130.722 33.1938C131.789 31.3687 132.334 29.1406 132.334 26.5095C132.334 23.8784 131.789 21.6503 130.722 19.8251C129.656 17.9999 128.257 16.6488 126.574 15.7481V15.7955ZM126.195 32.862C124.749 34.379 122.829 35.1375 120.459 35.1375C118.088 35.1375 116.168 34.379 114.722 32.862C113.277 31.345 112.542 29.2591 112.542 26.5569C112.542 23.8547 113.277 21.7451 114.722 20.2518C116.168 18.7347 118.088 17.9762 120.459 17.9762C122.829 17.9762 124.749 18.7347 126.195 20.2518C127.641 21.7688 128.376 23.8547 128.376 26.5569C128.376 29.2591 127.641 31.3687 126.195 32.862Z" fill="white"/>
<path d="M150.13 33.953C149.111 34.7352 147.665 35.1145 145.745 35.1145C143.399 35.1145 141.526 34.4508 140.128 33.0997C138.729 31.7486 137.971 29.9234 137.828 27.6479H156.08V25.0168C156.08 23.1205 155.677 21.3665 154.871 19.7546C154.065 18.1665 152.856 16.8865 151.221 15.9147C149.585 14.9428 147.618 14.4688 145.295 14.4688C142.972 14.4688 140.91 14.9665 139.156 15.9384C137.402 16.9102 136.051 18.3087 135.079 20.1339C134.107 21.959 133.633 24.0924 133.633 26.5575C133.633 29.0227 134.131 31.156 135.126 32.9811C136.122 34.8063 137.544 36.2048 139.369 37.1767C141.194 38.1485 143.328 38.6463 145.722 38.6463C148.922 38.6463 151.363 37.8641 153.093 36.2996C154.8 34.7352 155.938 32.8863 156.507 30.7293H152.335C151.861 32.1041 151.126 33.1945 150.107 33.953H150.13ZM140.27 19.6361C141.573 18.5457 143.256 17.9769 145.295 17.9769C147.499 17.9769 149.111 18.5458 150.13 19.6598C151.15 20.7976 151.671 22.3383 151.671 24.3531H137.852C138.136 22.2909 138.942 20.7265 140.246 19.6361H140.27Z" fill="white"/>
<path d="M201.084 32.1249C199.307 33.8316 196.794 34.6849 193.57 34.6849C191.247 34.6849 189.209 34.1634 187.455 33.1205C185.701 32.0775 184.326 30.6079 183.354 28.7116C182.382 26.8154 181.908 24.6109 181.908 22.1695C181.908 19.728 182.382 17.5236 183.354 15.6273C184.326 13.731 185.677 12.2377 187.455 11.2185C189.209 10.1755 191.247 9.65406 193.57 9.65406C199.71 9.65406 203.004 12.6644 203.455 18.6614H207.864C207.769 16.291 207.2 14.1103 206.157 12.1429C205.09 10.1755 203.526 8.6111 201.464 7.42593C199.378 6.26446 196.841 5.67188 193.807 5.67188C190.56 5.67188 187.692 6.35928 185.227 7.71037C182.762 9.08517 180.865 11.0052 179.538 13.494C178.211 15.9829 177.547 18.8747 177.547 22.1458C177.547 25.4168 178.211 28.3087 179.538 30.7975C180.865 33.2864 182.762 35.2064 185.227 36.5812C187.692 37.9323 190.536 38.6197 193.807 38.6197C196.865 38.6197 199.473 38.0271 201.677 36.8182C203.881 35.6093 205.541 33.9738 206.678 31.9116C207.816 29.8494 208.432 27.5265 208.527 24.9902H204.142C203.905 28.0479 202.886 30.4183 201.108 32.1249H201.084Z" fill="white"/>
<path d="M227.545 15.8673C225.743 14.9191 223.729 14.4688 221.5 14.4688C219.272 14.4688 217.258 14.9428 215.456 15.8673C213.655 16.8154 212.232 18.1902 211.189 19.9917C210.146 21.8168 209.625 23.9975 209.625 26.5338C209.625 29.0701 210.146 31.2745 211.189 33.076C212.232 34.9011 213.655 36.2759 215.456 37.2004C217.258 38.1485 219.272 38.5989 221.5 38.5989C223.729 38.5989 225.743 38.1248 227.545 37.2004C229.346 36.2522 230.768 34.8774 231.811 33.076C232.854 31.2508 233.376 29.0701 233.376 26.5338C233.376 23.9975 232.854 21.7931 231.811 19.9917C230.768 18.1665 229.346 16.7917 227.545 15.8673ZM227.237 32.8626C225.791 34.3797 223.871 35.1382 221.5 35.1382C219.13 35.1382 217.21 34.3797 215.764 32.8626C214.318 31.3456 213.583 29.2597 213.583 26.5575C213.583 23.8553 214.318 21.7457 215.764 20.2524C217.21 18.7354 219.13 17.9769 221.5 17.9769C223.871 17.9769 225.791 18.7354 227.237 20.2524C228.683 21.7694 229.417 23.8553 229.417 26.5575C229.417 29.2597 228.683 31.3693 227.237 32.8626Z" fill="white"/>
<path d="M244.8 34.329C244.752 34.4712 244.681 34.566 244.634 34.6134C244.586 34.6608 244.492 34.6845 244.373 34.6845C244.255 34.6845 244.16 34.6845 244.112 34.6134C244.065 34.566 243.994 34.4712 243.947 34.329L237.404 15.1055H233.398V15.9825L241.055 37.9793H247.739L255.395 15.9825V15.1055H251.389L244.847 34.329H244.8Z" fill="white"/>
<path d="M101.622 26.3207C101.622 29.0229 101.006 31.0377 99.7971 32.4125C98.5882 33.7636 96.8341 34.451 94.5823 34.451C92.5912 34.451 91.0742 33.9058 90.0075 32.8155C88.9646 31.7251 88.4194 30.137 88.4194 28.0748V14.4453H84.4609V28.7385C84.4609 31.6777 85.2906 33.9533 86.9261 35.5651C88.5616 37.1769 90.8135 37.9828 93.7053 37.9828C96.8104 37.9828 99.1808 36.9399 100.84 34.854C100.935 34.7592 101.006 34.6881 101.077 34.617C101.148 34.5458 101.219 34.4985 101.314 34.4985C101.527 34.4985 101.622 34.5933 101.622 34.8066V40.9932C101.622 41.2065 101.575 41.3487 101.456 41.4673C101.338 41.5858 101.172 41.6332 100.982 41.6332H91.9986V45.1413H98.1378C100.65 45.1413 102.523 44.525 103.756 43.2924C104.988 42.0599 105.604 40.1873 105.604 37.6747V14.4453H101.646V26.3207H101.622Z" fill="white"/>
<path d="M161.036 16.958C159.804 18.1906 159.188 20.0631 159.188 22.5757V37.9593H163.146V19.2809C163.146 19.0676 163.193 18.9254 163.312 18.8069C163.43 18.6883 163.596 18.6409 163.786 18.6409H171.395V15.1328H166.63C164.118 15.1328 162.245 15.7491 161.013 16.9817L161.036 16.958Z" fill="white"/>
<path d="M288.256 15.1055C285.743 15.1055 283.871 15.7218 282.638 16.9543C281.405 18.1869 280.789 20.0595 280.789 22.572V37.9556H284.748V19.2773C284.748 19.0639 284.795 18.9217 284.913 18.8032C285.032 18.6847 285.198 18.6373 285.388 18.6373H292.996V15.1292H288.232L288.256 15.1055Z" fill="white"/>
<path d="M22.4472 0.292969C10.0503 0.292969 0 10.3432 0 22.7401C0 35.137 10.0503 45.1873 22.4472 45.1873V0.292969Z" fill="url(#paint0_linear_1663_21655)"/>
<path d="M41.5409 0.292969C29.144 0.292969 19.0938 10.3432 19.0938 22.7401C19.0938 35.137 29.144 45.1873 41.5409 45.1873V0.292969Z" fill="url(#paint1_linear_1663_21655)"/>
<defs>
<linearGradient id="paint0_linear_1663_21655" x1="0" y1="22.7164" x2="22.4472" y2="22.7164" gradientUnits="userSpaceOnUse">
<stop stop-color="white"/>
<stop offset="1" stop-color="white" stop-opacity="0"/>
</linearGradient>
<linearGradient id="paint1_linear_1663_21655" x1="19.0938" y1="-163.379" x2="41.5409" y2="-163.379" gradientUnits="userSpaceOnUse">
<stop stop-color="white"/>
<stop offset="1" stop-color="white" stop-opacity="0"/>
</linearGradient>
</defs>
</svg>
