<?xml version="1.0" encoding="UTF-8"?>
<svg width="113.92mm" height="30.353mm" version="1.1" viewBox="0 0 113.92 30.353" xmlns="http://www.w3.org/2000/svg">
<defs>
<clipPath id="c">
<path d="m335.52 315.04v458.4h128.8v-458.4z" clip-rule="evenodd"/>
</clipPath>
<clipPath id="d">
<path d="m-27.68-48.48v458.4h128.8v-458.4z" clip-rule="evenodd"/>
</clipPath>
</defs>
<g transform="translate(-47.276 -118.69)">
<g transform="rotate(90 60.507 170.1)">
<g transform="matrix(.26458 0 0 .26458 -79.718 -21.227)">
<g clip-path="url(#c)">
<g transform="translate(382.72 680.96)">
<path d="m0 0c0 8.64 4.96 15.52 15.04 15.52 9.92 0 15.04-6.88 15.04-15.52 0-8.48-5.12-15.36-15.04-15.36-10.08 0-15.04 6.88-15.04 15.36zm-4.8 0c0-15.2 10.08-20.96 19.84-20.96 9.6 0 19.84 5.76 19.84 20.96 0 15.36-10.24 21.12-19.84 21.12-9.76 0-19.84-5.76-19.84-21.12z"/>
</g>
<path d="m378.88 653.76v-5.6h32.96v-23.04h4.8v28.64z"/>
<g transform="translate(382.72 603.2)">
<path d="m0 0c0 8.64 4.96 15.52 15.04 15.52 9.92 0 15.04-6.88 15.04-15.52s-5.12-15.36-15.04-15.36c-10.08 0-15.04 6.72-15.04 15.36zm-4.8 0c0-15.2 10.08-20.96 19.84-20.96 9.6 0 19.84 5.76 19.84 20.96 0 15.36-10.24 21.12-19.84 21.12-9.76 0-19.84-5.76-19.84-21.12z"/>
</g>
<g transform="translate(386.56 570.24)">
<path d="m0 0v0.16h30.08v5.6h-37.76v-6.56l30.08-24.32h-30.08v-5.76h37.76v6.56z"/>
</g>
<g transform="translate(386.56,525.12)">
<path d="m0 0v0.16h30.08v5.6h-37.76v-6.56l30.08-24.32h-30.08v-5.6h37.76v6.4z"/>
</g>
<g transform="translate(384 470.24)">
<path d="m0 0 16.8 7.04v-14.24zm21.6-9.28v18.4l11.04 4.96v5.92l-37.76-17.12v-6.4l37.76-16.96v6.4z"/>
</g>
<g transform="translate(411.84,426.56)">
<path d="m0 0c0-9.12-7.84-10.72-14.56-10.72-6.56 0-13.6 2.08-13.6 11.84v12.48h28.16zm-32.96 19.36v-19.2c0-11.36 7.36-16.48 18.4-16.48 10.4 0 19.36 4.48 19.36 16.16v19.52z"/>
</g>
<g transform="translate(378.88 403.68)">
<path d="m0 0v-30.4h4.8v24.8h11.04v-24h4.8v24h12.32v-25.28h4.8v30.88z"/>
</g>
<g transform="translate(393.28,713.12)">
<path d="m0 0h0.16c6.56 1.12 11.68 3.84 15.2 8 3.68 4.32 5.6 10.4 5.6 17.92 0 9.44-3.04 16.64-8.8 21.6-4.96 4.16-11.84 6.4-19.68 6.4-9.28 0-16.48-2.72-21.44-7.84-4.64-4.8-7.04-11.68-7.04-20.16 0-6.24 1.28-12 4-16.32 3.2-4.96 8-8.16 13.92-9.12h0.16v-5.6c-16.96 1.92-23.2 17.28-23.2 31.04 0 25.12 18.88 34.08 33.6 34.08 20.48 0 33.6-13.12 33.6-34.08 0-18.24-11.68-30.08-26.08-31.52z"/>
</g>
<g transform="translate(434.72 570.08)">
<path d="m0 0 5.92 2.56v-5.12zm7.04-3.04v6.08l3.52 1.6v1.44l-11.68-5.44v-1.28l11.68-5.44v1.44z" fill="#ed1d31"/>
</g>
<g transform="translate(440.8 459.68)">
<path d="m0 0c2.56 0.32 4.8 2.56 4.8 5.92 0 3.84-2.4 6.24-6.24 6.24-2.72 0-6.08-1.76-6.08-6.24 0-2.56 1.12-5.44 4.16-5.76v1.28c-2.24 0.32-3.04 2.24-3.04 4.48 0 2.88 1.6 4.96 4.96 4.96 2.72 0 5.12-1.44 5.12-4.96 0-2.88-1.44-4.16-3.68-4.64z" fill="#ed1d31"/>
</g>
<g transform="translate(444.48 450.72)">
<path d="m0 0c0-2.56-1.6-4.96-5.12-4.96s-4.96 2.4-4.96 4.96 1.44 5.12 4.96 5.12 5.12-2.56 5.12-5.12zm-11.2 0c0-3.36 1.92-6.4 6.08-6.4s6.24 3.04 6.24 6.4-2.08 6.4-6.24 6.4-6.08-3.04-6.08-6.4z" fill="#ed1d31"/>
</g>
<g transform="translate(433.6 428.96)">
<path d="m0 0v-1.76h11.68v1.28h-10.24l10.24 5.12v1.12l-10.24 5.28h10.24v1.12h-11.68v-1.76l10.08-5.12z" fill="#ed1d31"/>
</g>
<g transform="translate(439.2 422.24)">
<path d="m0 0v-4.8c0-2.08-0.96-2.56-2.24-2.56-1.76 0-2.24 0.96-2.24 2.4v4.96zm-5.6 1.12v-6.24c0-1.92 0.8-3.52 3.36-3.52 2.24 0 3.36 1.44 3.36 4v4.64h4.96v1.12z" fill="#ed1d31"/>
</g>
<g transform="translate(434.72,406.88)">
<path d="m0 0 5.92 2.72v-5.28zm7.04-3.04v6.24l3.52 1.6v1.28l-11.68-5.28v-1.44l11.68-5.44v1.44z" fill="#ed1d31"/>
</g>
<g transform="translate(433.6 398.4)">
<path d="m0 0v-1.44l9.92-8.32h-9.92v-1.12h11.68v1.28l-10.08 8.32h10.08v1.28z" fill="#ed1d31"/>
</g>
<g transform="translate(440.32 379.68)">
<path d="m0 0-6.72 5.28v-1.44l5.44-4.32-5.44-4.32v-1.6l6.72 5.28h4.96v1.12z" fill="#ed1d31"/>
</g>
<g transform="translate(444.96 551.52)">
<path d="m0 0c-0.16-0.96-0.48-0.96-1.6-0.96h-8c-0.8 0-1.44 0-1.6 0.96h-0.32v-0.8c0-0.16 0.16-0.48 0.16-0.64v-4.8c0-0.64-0.16-1.12-0.48-1.6v-0.16c1.12-0.16 1.28-0.16 2.56-0.32v0.32c-0.96 0.64-1.44 0.64-1.44 3.84v1.92h4.32v-1.92c0-2.56-0.32-2.4-1.28-2.72v-0.48c0.64 0.16 1.12 0.16 1.76 0.16 0.48 0 0.96 0 1.44-0.16v0.48c-0.96 0.16-1.12 0.16-1.12 2.72v1.92h4c1.12 0 1.6-0.32 1.6-1.6h0.32v3.84z" fill="#ed1d31"/>
</g>
<g transform="translate(439.52 539.52)">
<path d="m0 0v-3.68l-5.12 1.76zm5.6 3.04c-0.64 0-1.76-0.64-4.96-1.92l-3.52-1.44c-0.8-0.32-1.92-0.64-2.24-0.64-0.48 0-0.64 0.32-0.64 0.64h-0.32c0-0.48 0.16-0.8 0.16-1.28s-0.16-0.8-0.16-1.12l8.48-3.2c2.4-0.8 2.88-0.96 3.04-1.76h0.32v3.52h-0.32c0-0.64-0.16-1.12-0.64-1.12s-0.8 0.16-1.28 0.32l-2.72 0.96v4.32l2.4 0.8c0.48 0.16 1.12 0.48 1.44 0.48 0.48 0 0.8-0.48 0.8-1.28h0.32v2.72z" fill="#ed1d31"/>
</g>
<g transform="translate(444.96 530.56)">
<path d="m0 0c0-0.64-0.16-0.96-1.6-0.96h-8c-1.44 0-1.6 0.32-1.6 0.96h-0.32c0-0.64 0.16-1.12 0.16-1.76 0-0.48-0.16-0.96-0.16-1.44h0.32c0 0.48 0.16 0.96 1.6 0.96h8c1.44 0 1.6-0.48 1.6-0.96h0.32v3.2z" fill="#ed1d31"/>
</g>
<g transform="translate(438.4 521.44)">
<path d="m0 0c0-2.56-0.8-3.52-2.24-3.52s-2.08 1.44-2.08 2.88c0 0.8 0 1.44 0.16 2.08h4.16zm-3.04 2.72c-1.12 0-1.44 0-1.6 0.96h-0.32v-0.8c0-0.32 0.16-0.64 0.16-0.96 0-0.48-0.16-0.8-0.16-1.28s-0.16-0.8-0.16-1.28c0-2.24 0.64-4.16 2.88-4.16 2.08 0 2.4 1.76 2.56 2.4 1.28-2.72 4.8-2.56 6.08-4.32 0-0.16 0.16-0.32 0.16-0.64h0.32v2.08c-0.16 0.32-0.48 0.32-0.64 0.48l-1.6 0.64c-3.68 1.44-4 2.56-4 4.16v1.44h4.32c0.8 0 1.44 0 1.6-0.96h0.32v3.2h-0.32c-0.16-0.96-0.64-0.96-1.6-0.96z" fill="#ed1d31"/>
</g>
<g transform="translate(444.96 513.28)">
<path d="m0 0c-0.16-0.8-0.48-0.96-1.6-0.96h-8c-0.8 0-1.44 0-1.6 0.96h-0.32v-0.64c0-0.32 0.16-0.48 0.16-0.64v-4.96c0-0.48-0.16-0.96-0.48-1.44v-0.32c1.12 0 1.28 0 2.56-0.32v0.48c-0.96 0.48-1.44 0.48-1.44 3.68v2.08h4.32v-2.08c0-2.4-0.32-2.4-1.28-2.56v-0.48c0.64 0 1.12 0.16 1.76 0.16 0.48 0 0.96-0.16 1.44-0.16v0.48c-0.96 0.16-1.12 0-1.12 2.56v2.08h4c1.12 0 1.6-0.48 1.6-1.76h0.32v3.84z" fill="#ed1d31"/>
</g>
<g transform="translate(439.52 501.6)">
<path d="m0 0v-3.68l-5.12 1.76zm5.6 3.04c-0.64 0-1.76-0.64-4.96-1.92l-3.52-1.28c-0.8-0.32-1.92-0.8-2.24-0.8-0.48 0-0.64 0.48-0.64 0.8h-0.32c0-0.48 0.16-0.96 0.16-1.44s-0.16-0.8-0.16-1.12l8.48-3.04c2.4-0.96 2.88-0.96 3.04-1.92h0.32v3.52h-0.32c0-0.48-0.16-1.12-0.64-1.12s-0.8 0.16-1.28 0.32l-2.72 0.96v4.32l2.4 0.8c0.48 0.32 1.12 0.48 1.44 0.48 0.48 0 0.8-0.48 0.8-1.12h0.32v2.56z" fill="#ed1d31"/>
</g>
<g transform="translate(444.96 494.08)">
<path d="m0 0c-0.16-0.8-0.48-1.12-3.52-3.68l-2.08-1.76-2.88 2.24c-2.08 1.6-2.4 1.76-2.72 2.88h-0.32c0-0.64 0.16-1.28 0.16-1.92s-0.16-1.28-0.16-1.92h0.32c0 0.48 0.16 0.96 0.48 0.96s0.8-0.48 1.6-0.96l2.56-1.92-2.4-1.92c-0.8-0.64-1.44-1.12-1.76-1.12-0.48 0-0.48 0.48-0.48 0.8h-0.32c0-0.32 0.16-0.64 0.16-0.96 0-0.48-0.16-0.96-0.16-1.44 0.64 0.16 0.96 0.48 1.6 0.96l4 3.2 3.36-2.56c1.92-1.6 2.56-1.76 2.56-2.72h0.32v3.68h-0.32c0-0.48-0.16-0.8-0.48-0.8-0.48 0-1.12 0.64-1.28 0.64l-3.2 2.56 3.2 2.4c0.32 0.32 0.8 0.64 1.12 0.64s0.64-0.16 0.64-0.8h0.32v3.52z" fill="#ed1d31"/>
</g>
</g>
</g>
<g transform="matrix(.26458 0 0 .26458 -79.718 -21.227)">
<path d="m428.32 482.08h0.79999v69.44h-0.79999zm21.28 0h0.79998v69.44h-0.79998z" fill="#ed1d31" fill-rule="evenodd"/>
</g>
<g transform="matrix(.26458 0 0 .26458 16.379 74.954)">
<g clip-path="url(#d)">
<path d="m0 0 6.4-9.92-3.04-9.12-5.76 7.2zm0 0h-0.16l-15.68-6.24-11.68 6.24 11.68 6.24 15.84-6.24-2.4 12 5.76 7.2 3.04-9.12zm-5.12-16-12.64-4.96 2.72 12.96 15.04 8v-0.16zm5.12 16-15.04 8-2.72 12.96 12.64-4.96 4.8-15.2zm8.48 1.6v-3.2l-7.2 1.6z" fill="#ed1d31"/>
</g>
</g>
</g>
</g>
</svg>
