<svg width="152" height="27" viewBox="0 0 152 27" fill="none" xmlns="http://www.w3.org/2000/svg">
<g clip-path="url(#clip0_1664_23833)">
<path d="M8.81163 9.33523H2.66627C1.63237 9.33523 0.792969 8.51186 0.792969 7.49769C0.792969 6.48353 1.63237 5.66016 2.66627 5.66016H8.81163C9.84553 5.66016 10.6849 6.48353 10.6849 7.49769C10.6849 8.51186 9.84553 9.33523 8.81163 9.33523Z" fill="#808081"/>
<path d="M22.173 3.72976H7.38111C6.34721 3.72976 5.50781 2.90639 5.50781 1.89223C5.50781 0.878065 6.3438 0.0546875 7.38111 0.0546875H22.1764C23.2103 0.0546875 24.0497 0.878065 24.0497 1.89223C24.0497 2.90639 23.2103 3.72976 22.1764 3.72976" fill="#808081"/>
<path d="M19.7853 26.054H5.01392C3.98003 26.054 3.14062 25.2306 3.14062 24.2164C3.14062 23.2023 3.98003 22.3789 5.01392 22.3789H19.7853C20.8192 22.3789 21.6586 23.2023 21.6586 24.2164C21.6586 25.2306 20.8192 26.054 19.7853 26.054Z" fill="#808081"/>
<path d="M20.1635 14.9485H7.00611C5.97221 14.9485 5.13281 14.1251 5.13281 13.111C5.13281 12.0968 5.97221 11.2734 7.00611 11.2734H20.1635C21.1974 11.2734 22.0368 12.0968 22.0368 13.111C22.0368 14.1251 21.1974 14.9485 20.1635 14.9485Z" fill="#808081"/>
<path d="M15.1717 7.49884C15.1717 8.46949 14.3698 9.25939 13.3768 9.25939C12.3839 9.25939 11.582 8.47283 11.582 7.49884C11.582 6.52484 12.3839 5.73828 13.3768 5.73828C14.3698 5.73828 15.1717 6.52484 15.1717 7.49884Z" fill="#808081"/>
<path d="M136.082 9.61212C136.082 10.5828 135.28 11.3727 134.287 11.3727C133.294 11.3727 132.492 10.5861 132.492 9.61212C132.492 8.63812 133.294 7.85156 134.287 7.85156C135.28 7.85156 136.082 8.63812 136.082 9.61212Z" fill="#808081"/>
<path d="M24.5401 20.4876H18.0569C17.023 20.4876 16.1836 19.6642 16.1836 18.65C16.1836 17.6359 17.023 16.8125 18.0569 16.8125H24.5401C25.574 16.8125 26.4134 17.6359 26.4134 18.65C26.4134 19.6642 25.574 20.4876 24.5401 20.4876Z" fill="#808081"/>
<path d="M11.6172 18.65C11.6172 19.6642 12.4566 20.4876 13.4905 20.4876C14.5244 20.4876 15.3638 19.6642 15.3638 18.65C15.3638 17.6359 14.5244 16.8125 13.4905 16.8125C12.4566 16.8125 11.6172 17.6359 11.6172 18.65Z" fill="#808081"/>
<path d="M45.9597 13.256C50.2181 13.3095 51.7195 14.4642 51.7195 17.0649C51.7195 19.6656 49.6312 21.0312 46.0962 21.0312C43.3903 21.0312 41.6228 20.5057 40.3637 19.351C40.1487 19.1401 40.0156 18.8522 40.0156 18.5376C40.0156 17.8816 40.4694 17.4331 41.0871 17.4331C41.3805 17.4331 41.6774 17.5636 41.9435 17.7745C42.8819 18.5611 44.2741 18.9828 45.9358 18.9828C48.1059 18.9828 49.3923 18.2464 49.3923 17.0114C49.3923 15.9068 48.5632 15.4617 45.7481 15.4349C41.6774 15.4081 40.176 14.3304 40.176 11.8636C40.176 9.39679 42.3462 7.84375 45.772 7.84375C47.9695 7.84375 49.4947 8.28891 50.7265 9.28968C51.02 9.5541 51.1565 9.84195 51.1565 10.1833C51.1565 10.8929 50.7026 11.3381 50.0577 11.3381C49.7916 11.3381 49.5493 11.2578 49.3616 11.1004C48.3448 10.3105 47.2188 9.91893 45.9324 9.91893C43.8441 9.91893 42.5031 10.6821 42.5031 11.8636C42.5031 12.861 43.2811 13.2292 45.9597 13.256Z" fill="#010101"/>
<path d="M66.212 9.26073V19.6902C66.212 23.5795 63.7757 25.9157 59.7834 25.9157C57.3983 25.9157 55.4431 25.2597 54.3717 23.8941C54.2386 23.71 54.1294 23.4489 54.1294 23.1577C54.1294 22.5285 54.5832 22.0532 55.2827 22.0532C55.6581 22.0532 55.873 22.1837 56.1392 22.4482C57.0229 23.3151 58.149 23.787 59.7288 23.787C62.3255 23.787 63.8814 22.2641 63.8814 19.7939V18.6894H63.8269C62.8612 19.978 61.3087 20.711 59.2989 20.711C55.7638 20.711 53.8359 18.6626 53.8359 14.8537V9.25738C53.8359 8.46747 54.2898 7.99553 55.0131 7.99553C55.7365 7.99553 56.1665 8.46747 56.1665 9.25738V14.616C56.1665 17.2167 57.4529 18.5823 59.8619 18.5823C62.2709 18.5823 63.878 16.9021 63.878 14.1407V9.25403C63.878 8.46412 64.3319 7.99219 65.0314 7.99219C65.782 7.99219 66.2086 8.46412 66.2086 9.25403" fill="#010101"/>
<path d="M89.2474 13.4389V19.641C89.2474 20.4008 88.8175 20.8761 88.0941 20.8761C87.3707 20.8761 86.9169 20.4042 86.9169 19.641V13.7033C86.9169 11.26 85.8728 9.97136 83.8903 9.97136C81.9078 9.97136 80.5702 11.5478 80.5702 14.1217V19.6377C80.5702 20.3975 80.1403 20.8728 79.393 20.8728C78.6969 20.8728 78.2397 20.4008 78.2397 19.6377V13.7C78.2397 11.2566 77.1955 9.96802 75.1858 9.96802C73.176 9.96802 71.8657 11.5445 71.8657 14.1184V19.6343C71.8657 20.3941 71.4357 20.8694 70.6885 20.8694C69.9412 20.8694 69.5352 20.3975 69.5352 19.6343V9.25509C69.5352 8.46519 69.9651 7.99325 70.6885 7.99325C71.4119 7.99325 71.8657 8.46519 71.8657 9.25509V9.56972H71.9203C72.7494 8.43841 74.0904 7.83594 75.7249 7.83594C77.6255 7.83594 78.9938 8.59907 79.7445 10.0149H79.799C80.6828 8.6225 82.2081 7.83594 84.327 7.83594C87.6198 7.83594 89.2542 9.78058 89.2542 13.4322" fill="#010101"/>
<path d="M94.5805 6.9213V8.15637H99.6442C100.368 8.15637 100.821 8.57475 100.821 9.23413C100.821 9.8935 100.364 10.2851 99.6442 10.2851H94.5805V24.6775C94.5805 25.4373 94.1506 25.9125 93.4033 25.9125C92.6561 25.9125 92.25 25.4406 92.25 24.6775V7.00163C92.25 3.87547 94.0448 2.00781 97.0987 2.00781C99.1085 2.00781 100.634 2.79772 101.412 4.1901C101.518 4.40096 101.572 4.58505 101.572 4.81935C101.572 5.47537 101.118 5.8971 100.501 5.8971C100.098 5.8971 99.75 5.71301 99.5623 5.39839C99.1085 4.66203 98.3305 4.13655 97.2318 4.13655C95.5701 4.13655 94.5805 5.16075 94.5805 6.9213Z" fill="#010101"/>
<path d="M108.077 7.84375C112.121 7.84375 114.909 10.5247 114.909 14.4375C114.909 18.3502 112.124 21.0312 108.077 21.0312C104.03 21.0312 101.273 18.3502 101.273 14.4375C101.273 10.5247 104.034 7.84375 108.077 7.84375ZM108.077 18.9058C110.729 18.9058 112.523 17.095 112.523 14.4408C112.523 11.7866 110.729 9.97583 108.077 9.97583C105.426 9.97583 103.659 11.7899 103.659 14.4408C103.659 17.0917 105.453 18.9058 108.077 18.9058Z" fill="#010101"/>
<path d="M130.126 13.7011V19.6388C130.126 20.3986 129.673 20.8739 128.949 20.8739C128.226 20.8739 127.796 20.4019 127.796 19.6388V13.9388C127.796 11.3381 126.509 9.97248 124.046 9.97248C121.582 9.97248 120.002 11.6527 120.002 14.414V19.6422C120.002 20.4019 119.572 20.8772 118.825 20.8772C118.078 20.8772 117.672 20.4053 117.672 19.6422V9.23613C117.672 8.473 118.102 8.00106 118.825 8.00106C119.549 8.00106 120.002 8.473 120.002 9.23613V9.86538H120.057C121.023 8.57676 122.575 7.84375 124.609 7.84375C128.199 7.84375 130.126 9.89215 130.126 13.7011Z" fill="#010101"/>
<path d="M151.791 9.25956V19.6388C151.791 20.3986 151.338 20.8739 150.614 20.8739C149.891 20.8739 149.461 20.4019 149.461 19.6388V18.9292H149.406C148.39 20.2681 146.7 21.0312 144.558 21.0312C140.753 21.0312 138.211 18.4037 138.211 14.4375C138.211 10.4712 140.756 7.84375 144.558 7.84375C146.7 7.84375 148.386 8.63031 149.406 9.94571H149.461V9.26291C149.461 8.473 149.891 8.00106 150.614 8.00106C151.338 8.00106 151.791 8.473 151.791 9.26291M149.464 14.4341C149.464 11.8067 147.642 9.96914 144.991 9.96914C142.34 9.96914 140.599 11.7832 140.599 14.4341C140.599 17.085 142.394 18.9025 144.991 18.9025C147.588 18.9025 149.464 17.0649 149.464 14.4341Z" fill="#010101"/>
<path d="M134.292 13.0557C133.883 13.0557 133.49 12.9821 133.125 12.8516V19.6428C133.125 20.4025 133.555 20.8778 134.278 20.8778C135.002 20.8778 135.456 20.4059 135.456 19.6428V12.8516C135.09 12.9821 134.701 13.0557 134.292 13.0557Z" fill="#010101"/>
</g>
<defs>
<clipPath id="clip0_1664_23833">
<rect width="151" height="26" fill="white" transform="translate(0.792969 0.0546875)"/>
</clipPath>
</defs>
</svg>
