<svg width="123" height="45" viewBox="0 0 123 45" fill="none" xmlns="http://www.w3.org/2000/svg">
<g clip-path="url(#clip0_1664_23861)">
<path d="M0.375 12.2895H12.8559L23.9006 26.7619L24.0508 26.6858V12.2895H31.5321V31.6722H19.5846L8.39713 16.8695H8.28446V31.6664H0.375V12.2895ZM44.2924 12.2895H54.9195L67.3688 31.6722H57.5289L55.4258 27.9737H42.7225L40.6194 31.6722H31.8115L44.2924 12.2895ZM53.3226 24.189L49.2544 16.1488H49.1162L44.9369 24.189H53.3226ZM64.5896 25.6348H73.4004C73.4004 26.3527 73.6799 26.927 74.467 27.487C75.1085 27.9679 76.2893 28.291 77.9989 28.3699C79.5988 28.3699 80.7766 28.2063 81.6734 27.8071C82.6003 27.487 83.1292 27.0017 83.1292 26.4403C83.1211 26.2289 83.0584 26.0227 82.9468 25.8401C82.8351 25.6575 82.6779 25.5041 82.4892 25.3936C82.0281 25.046 81.4919 24.8007 80.9193 24.6757C80.2669 24.4935 79.601 24.3587 78.9273 24.2723C78.1431 24.1129 77.4686 24.034 76.8241 23.9521C74.3273 23.5516 72.2227 23.2342 70.6528 22.8265C69.2538 22.5196 67.9241 21.9744 66.7273 21.217C65.6592 20.4144 65.1304 19.4467 65.1304 18.1632C65.1304 16.7145 65.6592 15.5917 66.8385 14.7073C68.0178 13.8229 69.6147 13.0978 71.6893 12.6972C73.9882 12.2551 76.3285 12.04 78.6734 12.0555C82.8798 12.0555 86.1607 12.6168 88.1227 13.5817C90.2259 14.5479 91.2654 15.9148 91.2654 17.6018V18.1675H82.4892C82.4892 17.4496 82.2098 16.8753 81.4226 16.479C80.6384 15.9952 79.6003 15.8344 78.2828 15.8344C77.105 15.8344 76.1796 15.9952 75.5051 16.3972C74.7209 16.7188 74.3288 17.2012 74.3288 17.6894C74.3288 18.6528 76.0384 19.3778 79.6003 19.8602C81.9559 20.179 83.6655 20.423 84.8462 20.5867C86.0431 20.8021 87.2228 21.0971 88.3766 21.4697C89.465 21.8093 90.455 22.3881 91.267 23.1596C91.94 23.7985 92.3321 24.7648 92.4688 25.81C92.4688 27.2558 91.8228 28.3829 90.615 29.3491C89.2975 30.3125 87.6104 30.9586 85.4832 31.4382C83.1925 31.861 80.8637 32.0673 78.5307 32.0541C75.3879 32.0541 72.7545 31.8402 70.791 31.4382C68.799 30.9586 67.2291 30.2321 66.191 29.2673C65.6716 28.8065 65.2605 28.2456 64.985 27.6216C64.7094 26.9976 64.5757 26.3248 64.5926 25.6478M93.4212 12.3024H102.199V20.8236H102.34L112.323 12.3024H122.45L111.681 20.8236L123.375 31.6794H112.578L102.343 21.3735H102.202V31.6679H93.4242L93.4212 12.3024Z" fill="#212E39"/>
</g>
<defs>
<clipPath id="clip0_1664_23861">
<rect width="122" height="44" fill="white" transform="translate(0.792969 0.0546875)"/>
</clipPath>
</defs>
</svg>
