<svg xmlns="http://www.w3.org/2000/svg" xmlns:xlink="http://www.w3.org/1999/xlink" width="120" height="47" viewBox="0 0 120 47">
  <defs>
    <clipPath id="clip-logo-pzu-2">
      <rect width="120" height="47"/>
    </clipPath>
  </defs>
  <g id="logo-pzu-2" clip-path="url(#clip-logo-pzu-2)">
    <g id="logo-pzu" transform="translate(36.791 -0.762)">
      <path id="Path_1" data-name="Path 1" d="M23.5.762A23.292,23.292,0,1,1,.209,24.053,23.294,23.294,0,0,1,23.5.762Zm0,6.935A16.357,16.357,0,1,1,7.144,24.053,16.359,16.359,0,0,1,23.5,7.7Z" fill-rule="evenodd"/>
      <path id="Path_2" data-name="Path 2" d="M11.078,19.52l.347,2.067v7h2.543V26.358h1.715a3.425,3.425,0,1,0-.275-6.838Zm2.89,2.067H15.39a1.44,1.44,0,0,1-.066,2.878H13.966Z" fill-rule="evenodd"/>
      <path id="Path_3" data-name="Path 3" d="M27.957,19.681l2.544-.318v5.324c0,1.288.8,1.673,1.4,1.673a1.6,1.6,0,0,0,1.621-1.673V19.681l2.384-.318v5.324a4.057,4.057,0,0,1-3.931,4.093,3.763,3.763,0,0,1-4-4.093Z" fill-rule="evenodd"/>
      <path id="Path_4" data-name="Path 4" d="M18.9,14.75l.477,2.545h4.451L18.441,33.356h9.532l-.7-2.7H22.56l5.087-15.9Z" fill-rule="evenodd"/>
    </g>
  </g>
</svg>
