<svg width="16" height="16" viewBox="0 0 16 16" fill="none" xmlns="http://www.w3.org/2000/svg">
<g clip-path="url(#clip0_2247_15281)">
<path d="M9.22003 11.044C9.35772 11.1073 9.51283 11.1217 9.65983 11.085C9.80682 11.0483 9.93692 10.9626 10.0287 10.842L10.2654 10.532C10.3896 10.3664 10.5506 10.232 10.7357 10.1395C10.9209 10.0469 11.125 9.9987 11.332 9.9987H13.332C13.6857 9.9987 14.0248 10.1392 14.2748 10.3892C14.5249 10.6393 14.6654 10.9784 14.6654 11.332V13.332C14.6654 13.6857 14.5249 14.0248 14.2748 14.2748C14.0248 14.5249 13.6857 14.6654 13.332 14.6654C10.1494 14.6654 7.09719 13.4011 4.84675 11.1506C2.59631 8.90021 1.33203 5.84796 1.33203 2.66536C1.33203 2.31174 1.47251 1.9726 1.72256 1.72256C1.9726 1.47251 2.31174 1.33203 2.66536 1.33203H4.66536C5.01899 1.33203 5.35812 1.47251 5.60817 1.72256C5.85822 1.9726 5.9987 2.31174 5.9987 2.66536V4.66536C5.9987 4.87236 5.9505 5.07651 5.85793 5.26165C5.76536 5.44679 5.63096 5.60784 5.46536 5.73203L5.15336 5.96603C5.03098 6.05948 4.94471 6.19242 4.90922 6.34226C4.87374 6.49211 4.89122 6.64961 4.9587 6.78803C5.86982 8.63861 7.36831 10.1352 9.22003 11.044Z" stroke="#EDF8FF" stroke-linecap="round" stroke-linejoin="round"/>
</g>
<defs>
<clipPath id="clip0_2247_15281">
<rect width="16" height="16" fill="white"/>
</clipPath>
</defs>
</svg>
