<svg xmlns="http://www.w3.org/2000/svg" xmlns:xlink="http://www.w3.org/1999/xlink" width="760" height="380" viewBox="0 0 760 380">
  <defs>
    <linearGradient id="linear-gradient" x1="0.601" y1="1.569" x2="1.129" y2="0.205" gradientUnits="objectBoundingBox">
      <stop offset="0.159" stop-color="#c9c5bb" stop-opacity="0"/>
      <stop offset="0.596" stop-color="#c9c5bb" stop-opacity="0"/>
      <stop offset="1" stop-color="#c9c5bb"/>
    </linearGradient>
    <clipPath id="clip-tlo-box-szersze">
      <rect width="760" height="380"/>
    </clipPath>
  </defs>
  <g id="tlo-box-szersze" clip-path="url(#clip-tlo-box-szersze)">
    <path id="tlo-box" d="M151.161,4.423Q158.607.147,170.52.136L344.2.055q16.212-.008,24.11,7.9t7.881,24.09l-.3,173.462q-.021,11.9-4.316,19.33a22.936,22.936,0,0,1-3.637,4.778L233.445,363.777q-11.489,11.458-22.678,11.448T188.128,363.8L11.811,187.482Q.363,176.034.4,164.857q.019-11.172,11.49-22.636L146.383,8.06a22.952,22.952,0,0,1,4.789-3.626Z" transform="translate(383.602 -0.055)" opacity="0.3" fill="url(#linear-gradient)"/>
  </g>
</svg>
