<svg xmlns="http://www.w3.org/2000/svg" viewBox="0 0 1513 608" preserveAspectRatio="xMidYMid slice">
  <defs>
    <linearGradient id="cc-arrow-grad" x1="0.751" y1="0.573" x2="0.129" y2="1" gradientUnits="objectBoundingBox">
      <stop offset="0" stop-color="#fff" stop-opacity="0"/>
      <stop offset="1" stop-color="#a7a7a7" stop-opacity="0.251"/>
    </linearGradient>
  </defs>
  <rect width="1513" height="608" fill="#feffe0"/>
  <g fill="url(#cc-arrow-grad)">
    <path transform="translate(766 60) scale(0.807)" d="M1.449,408.126q4.03,14.84,19.2,29.928l9.93,9.869,211.486,210.1q20.672,20.523,40.849,20.517t40.849-20.517l211.486-210.1,9.93-9.869q15.193-15.1,19.2-29.928a40.582,40.582,0,0,0,1.473-10.649V57.391q0-29.048-14.289-43.2Q537.309.019,508.087,0H57.775Q28.522,0,14.289,14.19.025,28.361,0,57.391V397.478a40.583,40.583,0,0,0,1.473,10.649H1.449Z"/>
    <path transform="translate(984 60) scale(0.807)" d="M1.449,408.126q4.03,14.84,19.2,29.928l9.93,9.869,211.486,210.1q20.672,20.523,40.849,20.517t40.849-20.517l211.486-210.1,9.93-9.869q15.193-15.1,19.2-29.928a40.582,40.582,0,0,0,1.473-10.649V57.391q0-29.048-14.289-43.2Q537.309.019,508.087,0H57.775Q28.522,0,14.289,14.19.025,28.361,0,57.391V397.478a40.583,40.583,0,0,0,1.473,10.649H1.449Z"/>
    <path transform="translate(1157 60) scale(0.807)" d="M1.449,408.126q4.03,14.84,19.2,29.928l9.93,9.869,211.486,210.1q20.672,20.523,40.849,20.517t40.849-20.517l211.486-210.1,9.93-9.869q15.193-15.1,19.2-29.928a40.582,40.582,0,0,0,1.473-10.649V57.391q0-29.048-14.289-43.2Q537.309.019,508.087,0H57.775Q28.522,0,14.289,14.19.025,28.361,0,57.391V397.478a40.583,40.583,0,0,0,1.473,10.649H1.449Z"/>
  </g>
</svg>
